<?xml version="1.0" encoding="UTF-8"?>
<svg version="1.1" xmlns="http://www.w3.org/2000/svg" width="301" height="301">
<path d="M0 0 C1.1283728 0.00264359 1.1283728 0.00264359 2.27954102 0.00534058 C42.4388618 0.2132911 78.09802057 15.91174691 107 43.5 C107.64710938 44.08394531 108.29421875 44.66789062 108.9609375 45.26953125 C133.84337107 68.57777004 149.93263565 105.98781079 151.4108429 139.84361267 C151.50910661 143.39677176 151.52255878 146.94572768 151.5 150.5 C151.49735641 151.6283728 151.49735641 151.6283728 151.49465942 152.77954102 C151.2867089 192.9388618 135.58825309 228.59802057 108 257.5 C107.41605469 258.14710938 106.83210938 258.79421875 106.23046875 259.4609375 C82.92222996 284.34337107 45.51218921 300.43263565 11.65638733 301.9108429 C8.10322824 302.00910661 4.55427232 302.02255878 1 302 C-0.1283728 301.99735641 -0.1283728 301.99735641 -1.27954102 301.99465942 C-41.4388618 301.7867089 -77.09802057 286.08825309 -106 258.5 C-106.64710937 257.91605469 -107.29421875 257.33210938 -107.9609375 256.73046875 C-132.84337107 233.42222996 -148.93263565 196.01218921 -150.4108429 162.15638733 C-150.50910661 158.60322824 -150.52255878 155.05427232 -150.5 151.5 C-150.49823761 150.74775146 -150.49647522 149.99550293 -150.49465942 149.22045898 C-150.2867089 109.0611382 -134.58825309 73.40197943 -107 44.5 C-106.41605469 43.85289063 -105.83210938 43.20578125 -105.23046875 42.5390625 C-78.87115065 14.39948544 -37.9074623 -0.24059669 0 0 Z " fill="#FEFEFD" transform="translate(150,-0.5)"/>
<path d="M0 0 C3.56589486 1.4433384 5.04241079 3.11535929 7.125 6.3125 C9.92350576 10.47130728 12.8578591 14.48415227 15.9375 18.4375 C19.67057561 23.24897299 23.30724466 28.11569664 26.87109375 33.0546875 C29.86884573 37.20203612 32.89855956 41.32573978 35.93334961 45.44604492 C38.0135469 48.27377373 40.07570033 51.10775999 42.09375 53.98046875 C52.17607155 68.29819177 63.19687939 81.14469556 81.18359375 84.39453125 C82.78358303 84.63597832 84.3913703 84.82514895 86 85 C86 87.31 86 89.62 86 92 C52.34 91.67 18.68 91.34 -16 91 C-16 89.02 -16 87.04 -16 85 C-12.37 85 -8.74 85 -5 85 C-5 84.34 -5 83.68 -5 83 C-4.45730469 82.76925781 -3.91460937 82.53851563 -3.35546875 82.30078125 C-0.04172581 80.79019213 2.52246829 79.52230031 5 76.8125 C6.46957047 72.67933306 6.95131589 69.32228305 6 65 C4.05600327 61.35353341 1.55983479 58.23270565 -1 55 C-2.27683643 53.23349022 -3.54755535 51.46254453 -4.8125 49.6875 C-7.81193176 45.57415935 -10.88559169 41.52621772 -14 37.5 C-17.24618502 33.29817116 -20.46682686 29.08105557 -23.625 24.8125 C-24.27726563 23.93207031 -24.92953125 23.05164063 -25.6015625 22.14453125 C-27 20 -27 20 -27 18 C-26.31035156 17.98582031 -25.62070313 17.97164062 -24.91015625 17.95703125 C-16.95393466 17.55321753 -10.74167709 15.97011632 -5.14453125 10.03125 C-2.58401611 6.77130674 -0.80509189 4.10779839 0 0 Z " fill="#5A5A5A" transform="translate(168,151)"/>
<path d="M0 0 C30.03 0 60.06 0 91 0 C91 1.98 91 3.96 91 6 C90.09636719 6.25394531 89.19273437 6.50789063 88.26171875 6.76953125 C87.08222656 7.11371094 85.90273437 7.45789063 84.6875 7.8125 C83.51574219 8.14894531 82.34398437 8.48539063 81.13671875 8.83203125 C78.21667329 9.9193209 76.7994924 10.51707668 75 13 C73.69139108 19.15046193 76.34068247 23.1116235 79.5390625 28.28125 C86.46155008 38.86928061 93.66887797 49.31646629 101.71484375 59.08325195 C103 61 103 61 103 64 C101.83984375 64.11214844 101.83984375 64.11214844 100.65625 64.2265625 C93.46410166 65.13448222 87.90524708 66.39569596 83 72 C81.31945731 74.90321297 80.15344693 77.85942666 79 81 C78.3499812 82.34152815 77.68812083 83.67761127 77 85 C67.61515455 73.77213581 58.79590077 62.11280846 50.0625 50.375 C47.62393982 47.09959076 45.13700054 43.93861922 42.4375 40.875 C40 38 40 38 40 36 C39.01 35.67 38.02 35.34 37 35 C36.02766892 33.31656112 35.06118773 31.62909859 34.14208984 29.91601562 C32.28740392 26.8045203 29.82751901 24.33497318 27.3125 21.75 C22.12820935 16.38462804 22.12820935 16.38462804 21 13 C19.20375228 12.37516573 19.20375228 12.37516573 17 12 C15.20278404 11.34844134 13.41143992 10.68054854 11.625 10 C7.75156095 8.56884983 4.12915072 7.44639467 0 7 C0 4.69 0 2.38 0 0 Z " fill="#585858" transform="translate(47,62)"/>
<path d="M0 0 C-0.31989174 6.23788897 -3.4391092 10.13072344 -7 15 C-7.71027344 15.97839844 -8.42054687 16.95679688 -9.15234375 17.96484375 C-12.92564479 23.07976293 -16.77140791 28.05606641 -21.02734375 32.77734375 C-23.03496911 35.03940084 -24.96610908 37.35838058 -26.90185547 39.68188477 C-32.23300877 46.03526948 -37.8413037 52.05462825 -43.6875 57.9375 C-44.37569824 58.63480225 -45.06389648 59.33210449 -45.77294922 60.05053711 C-58.79837568 73 -58.79837568 73 -63 73 C-63 73.66 -63 74.32 -63 75 C-66.839948 77.59836482 -70.94555526 79.75530741 -75 82 C-75.74636719 82.44472656 -76.49273437 82.88945312 -77.26171875 83.34765625 C-82.21650979 86.15168607 -86.36151711 86.46987357 -92 86 C-94.31640366 82.72978307 -94.12265511 79.96785742 -93.49951172 76.09667969 C-88.67539725 55.84765964 -67.77298682 40.76999395 -52 29 C-50.32780097 27.65267096 -48.66071318 26.2989613 -47 24.9375 C-12.10318235 -3.02579559 -12.10318235 -3.02579559 0 0 Z " fill="#FC904D" transform="translate(132,160)"/>
<path d="M0 0 C0.99 0.66 1.98 1.32 3 2 C3.98943168 11.38970666 -0.69230749 18.63289227 -6.41162109 25.75878906 C-9.3347854 29.16285793 -12.42362752 32.39069114 -15.58642578 35.57177734 C-16.83770646 36.83602466 -18.05986667 38.12894889 -19.27734375 39.42578125 C-25.00260524 45.42824348 -31.42682733 50.42796924 -37.99755859 55.45068359 C-40.10896777 57.08430986 -42.19056407 58.75109668 -44.26953125 60.42578125 C-75.00871687 85.04348052 -75.00871687 85.04348052 -86.9375 86.3125 C-89 86 -89 86 -90 85 C-90 67.79175582 -66.45234469 47.45234469 -55 36 C-53.55913559 34.37798243 -52.12204472 32.75260951 -50.6875 31.125 C-47.32108309 27.36351598 -43.87195761 23.94597619 -40.0078125 20.703125 C-38.63795705 19.54114644 -37.29995523 18.34081387 -35.9921875 17.109375 C-31.5702728 12.96484979 -26.93596815 9.43600141 -21.875 6.125 C-21.01430908 5.55289795 -21.01430908 5.55289795 -20.13623047 4.96923828 C-13.61518272 0.81778442 -7.57575488 -0.50505033 0 0 Z " fill="#FC914E" transform="translate(251,50)"/>
<path d="M0 0 C3.4331459 2.00318208 6.21130844 4.42261689 8 8 C8.54317573 12.9509132 8.52241949 16.89488185 6.375 21.4375 C2.7324842 25.36758284 -0.23736957 26.81445995 -5.5625 27.375 C-11.11116931 26.76969062 -14.38385488 24.13273728 -18 20 C-19.61386527 15.15840419 -19.83616487 10.79178187 -17.6875 6.1875 C-12.90176216 -0.01623424 -7.73559686 -1.2756128 0 0 Z " fill="#5C5350" transform="translate(153,134)"/>
<path d="M0 0 C3.36627241 0.57298254 4.72753464 0.8807818 6.9375 3.5 C7.90738093 6.23222554 8.26325603 8.6131276 7.9375 11.5 C5.54290961 14.98304057 4.08572958 16.2607855 -0.0625 17.125 C-4.1368356 16.27618008 -5.60655875 14.82274404 -8.0625 11.5 C-8.6875 8.5 -8.6875 8.5 -8.0625 5.5 C-5.57165752 2.13003665 -4.17661135 0.68189573 0 0 Z " fill="#FB914C" transform="translate(148.0625,138.5)"/>
<path d="M0 0 C0.33 0 0.66 0 1 0 C1 1.65 1 3.3 1 5 C0.01 5.33 -0.98 5.66 -2 6 C-3.60207572 8.09194306 -3.60207572 8.09194306 -5.0625 10.5625 C-6.59765625 13.06640625 -6.59765625 13.06640625 -8 15 C-8.66 15 -9.32 15 -10 15 C-9.896875 15.7425 -9.79375 16.485 -9.6875 17.25 C-9.8421875 18.61125 -9.8421875 18.61125 -10 20 C-11.1446875 20.8971875 -11.1446875 20.8971875 -12.3125 21.8125 C-15.99541864 24.81022448 -16.58031425 27.51678184 -18 32 C-13.90731087 30.80213977 -10.45772515 29.19711373 -6.80078125 27.0078125 C-4.98872152 25.99368796 -3.17661877 25.20814751 -1.25 24.4375 C1.71678083 23.12527002 2.89536736 22.29596289 5 20 C5.845625 19.505 6.69125 19.01 7.5625 18.5 C10.24718511 17.08195341 10.24718511 17.08195341 12 14 C14.625 13.8125 14.625 13.8125 17 14 C13.03622208 18.29863538 8.7388402 21.37559445 3.8125 24.5 C2.68183105 25.22183472 2.68183105 25.22183472 1.52832031 25.95825195 C-13.56906518 35.49216338 -13.56906518 35.49216338 -20 35 C-20.33 34.67 -20.66 34.34 -21 34 C-21 21.56377523 -8.00550138 8.66418188 0 0 Z " fill="#E9A072" transform="translate(182,101)"/>
<path d="M0 0 C28.05 0 56.1 0 85 0 C84.67 0.99 84.34 1.98 84 3 C47.37 2.505 47.37 2.505 10 2 C10.49152482 6.86132495 10.49152482 6.86132495 13 9 C8.65535464 8.39174965 4.32448133 7.73832608 0 7 C0 4.69 0 2.38 0 0 Z " fill="#727272" transform="translate(47,62)"/>
<path d="M0 0 C0.66 0.33 1.32 0.66 2 1 C0.8803014 2.00593243 -0.2459412 3.0045849 -1.375 4 C-2.00148437 4.556875 -2.62796875 5.11375 -3.2734375 5.6875 C-5 7 -5 7 -7 7 C-7 7.66 -7 8.32 -7 9 C-10.839948 11.59836482 -14.94555526 13.75530741 -19 16 C-19.74636719 16.44472656 -20.49273437 16.88945312 -21.26171875 17.34765625 C-26.21650979 20.15168607 -30.36151711 20.46987357 -36 20 C-38.37258393 15.87774993 -38.09327105 12.52926576 -37 8 C-35.4375 4.5 -35.4375 4.5 -34 2 C-33.67 2 -33.34 2 -33 2 C-32.875 4.875 -32.875 4.875 -33 8 C-33.66 8.66 -34.32 9.32 -35 10 C-35.16677282 13.58343976 -35.16677282 13.58343976 -35 17 C-27.69728651 17.60855946 -23.24350592 14.97430795 -17.125 11.25 C-15 10 -15 10 -13 10 C-12.690625 9.071875 -12.690625 9.071875 -12.375 8.125 C-10.45750757 5.16160261 -8.29882268 4.98262803 -5 4 C-4.67 3.34 -4.34 2.68 -4 2 C-2.0625 0.8125 -2.0625 0.8125 0 0 Z " fill="#E89D6B" transform="translate(76,226)"/>
<path d="M0 0 C0.30078125 2.203125 0.30078125 2.203125 0 5 C-2.08203125 7.421875 -2.08203125 7.421875 -4.8125 9.75 C-5.70582031 10.52859375 -6.59914062 11.3071875 -7.51953125 12.109375 C-10 14 -10 14 -13 15 C-13.70394612 16.31403276 -14.36345658 17.6520257 -15 19 C-17.8986573 23.03741552 -20.99125664 26.10005799 -25 29 C-25.99 28.67 -26.98 28.34 -28 28 C-27.31164062 27.22076172 -27.31164062 27.22076172 -26.609375 26.42578125 C-22.64405194 21.91969992 -22.64405194 21.91969992 -18.875 17.25 C-17 15 -17 15 -14.625 13.125 C-11.83434815 10.86590088 -9.71245662 8.42636203 -7.41796875 5.68359375 C-2.63109049 0 -2.63109049 0 0 0 Z " fill="#E9A175" transform="translate(211,72)"/>
<path d="M0 0 C0.67909132 6.04135015 -0.39546731 9.89379296 -3.625 15.0625 C-3.98529297 15.66594238 -4.34558594 16.26938477 -4.71679688 16.89111328 C-7.43329342 21.34208085 -10.41133546 25.23190223 -14 29 C-14.33 27.68 -14.66 26.36 -15 25 C-14.34 25 -13.68 25 -13 25 C-12.67 23.35 -12.34 21.7 -12 20 C-11.01 20 -10.02 20 -9 20 C-9 19.34 -9 18.68 -9 18 C-8.34 18 -7.68 18 -7 18 C-7 16.35 -7 14.7 -7 13 C-6.01 13 -5.02 13 -4 13 C-3.1276588 10.00519083 -2.89170234 7.36424089 -2.9375 4.25 C-2.94652344 3.45078125 -2.95554688 2.6515625 -2.96484375 1.828125 C-2.97644531 1.22484375 -2.98804688 0.6215625 -3 0 C-9.00008597 0.39456348 -13.54884393 1.49246821 -19 4 C-19.99 4 -20.98 4 -22 4 C-22.33 4.99 -22.66 5.98 -23 7 C-24.32 6.67 -25.64 6.34 -27 6 C-19.38442799 0.5084991 -9.0452816 -6.03018773 0 0 Z " fill="#E4A478" transform="translate(254,52)"/>
<path d="M0 0 C0.66 0.33 1.32 0.66 2 1 C-2.04367669 6.23987687 -5.69674236 9.63882939 -11.61328125 12.58203125 C-14.46613304 14.27693338 -16.61159906 16.32546979 -19 18.625 C-23.47747638 22.84281082 -27.05182751 24.56092601 -33 26 C-29.41560378 22.28210671 -25.64315829 18.98218388 -21.5625 15.8125 C-20.664104 15.11000122 -20.664104 15.11000122 -19.74755859 14.39331055 C-13.30734377 9.3968233 -6.67465516 4.67631615 0 0 Z " fill="#EBA272" transform="translate(104,171)"/>
<path d="M0 0 C3.36627241 0.57298254 4.72753464 0.8807818 6.9375 3.5 C7.90738093 6.23222554 8.26325603 8.6131276 7.9375 11.5 C5.54290961 14.98304057 4.08572958 16.2607855 -0.0625 17.125 C-4.1368356 16.27618008 -5.60655875 14.82274404 -8.0625 11.5 C-8.6875 8.5 -8.6875 8.5 -8.0625 5.5 C-5.57165752 2.13003665 -4.17661135 0.68189573 0 0 Z M-6.0625 4.5 C-6.42547936 6.47747122 -6.42547936 6.47747122 -6.25 8.625 C-6.188125 9.90375 -6.12625 11.1825 -6.0625 12.5 C-5.0725 12.5 -4.0825 12.5 -3.0625 12.5 C-3.0625 13.16 -3.0625 13.82 -3.0625 14.5 C-0.7525 14.5 1.5575 14.5 3.9375 14.5 C5.45504003 12.08978936 5.96066906 10.81664378 5.75 7.9375 C4.85437168 5.25061504 4.27822811 4.08835122 1.9375 2.5 C-1.81099077 2.03143865 -2.82996204 2.34497469 -6.0625 4.5 Z " fill="#D28D62" transform="translate(148.0625,138.5)"/>
<path d="M0 0 C1.31677734 -0.02126953 1.31677734 -0.02126953 2.66015625 -0.04296875 C4.9375 0.1875 4.9375 0.1875 6.9375 2.1875 C5.9475 2.5175 4.9575 2.8475 3.9375 3.1875 C3.9375 2.5275 3.9375 1.8675 3.9375 1.1875 C0.96684491 1.52977572 0.96684491 1.52977572 -2.0625 2.1875 C-2.3925 2.8475 -2.7225 3.5075 -3.0625 4.1875 C-4.0525 4.5175 -5.0425 4.8475 -6.0625 5.1875 C-6.3925 5.8475 -6.7225 6.5075 -7.0625 7.1875 C-7.7225 7.1875 -8.3825 7.1875 -9.0625 7.1875 C-9.18625 7.703125 -9.31 8.21875 -9.4375 8.75 C-10.24891628 11.91452351 -11.1570913 15.04874985 -12.0625 18.1875 C-11.4025 18.5175 -10.7425 18.8475 -10.0625 19.1875 C-10.7225 19.8475 -11.3825 20.5075 -12.0625 21.1875 C-14.5466465 17.46128025 -14.63105837 13.51198943 -14.0625 9.1875 C-12.56532018 5.97925753 -10.78731464 3.45817886 -8.0625 1.1875 C-5.12020079 0.2067336 -3.0716216 0.02261872 0 0 Z " fill="#807E7D" transform="translate(148.0625,133.8125)"/>
<path d="M0 0 C-0.33 0.99 -0.66 1.98 -1 3 C-21.46 2.67 -41.92 2.34 -63 2 C-63 1.67 -63 1.34 -63 1 C-56.59950106 0.85507425 -50.19894309 0.71299667 -43.79833984 0.57275391 C-41.62807843 0.52488285 -39.45783046 0.47639713 -37.28759766 0.42724609 C-24.85617482 0.14614793 -12.4349818 -0.08283852 0 0 Z " fill="#8F8F8F" transform="translate(132,62)"/>
<path d="M0 0 C2.875 0.25 2.875 0.25 6 1 C8.47891958 4.04231039 8.31648513 7.20217847 8 11 C7.3125 13.25 7.3125 13.25 6 15 C2.27778384 16.84800169 -0.68424325 17.22447607 -4.8125 17.125 C-6.27623047 17.09792969 -6.27623047 17.09792969 -7.76953125 17.0703125 C-8.50558594 17.04710937 -9.24164063 17.02390625 -10 17 C-10.33 15.02 -10.66 13.04 -11 11 C-9.948125 11.99 -9.948125 11.99 -8.875 13 C-5.49736169 15.34966143 -4.02695637 15.68543938 0 15 C2.60314994 13.6469872 2.60314994 13.6469872 4 11 C4.24586804 7.18136196 3.81339004 4.04113925 1.4375 1 C0.963125 0.67 0.48875 0.34 0 0 Z " fill="#715745" transform="translate(151,139)"/>
<path d="M0 0 C4.875 3.75 4.875 3.75 6 6 C6.54317573 10.9509132 6.52241949 14.89488185 4.375 19.4375 C0.60540719 23.50469225 -2.32606722 24.91900325 -7.875 25.1875 C-8.90625 25.125625 -9.9375 25.06375 -11 25 C-11 24.67 -11 24.34 -11 24 C-9.9275 23.7525 -8.855 23.505 -7.75 23.25 C-3.95411278 21.98470426 -2.60376183 20.8930687 0 18 C0.66 18 1.32 18 2 18 C3.03217526 11.70746169 3.51774052 7.62838484 0 2 C0 1.34 0 0.68 0 0 Z " fill="#676767" transform="translate(155,136)"/>
<path d="M0 0 C0.33 0.99 0.66 1.98 1 3 C0.236875 3.4125 -0.52625 3.825 -1.3125 4.25 C-4.02846108 5.79975743 -4.02846108 5.79975743 -5.5 8 C-7.33201174 10.44268232 -9.38979109 11.46064603 -12 13 C-12.99 14.485 -12.99 14.485 -14 16 C-17.125 16.1875 -17.125 16.1875 -20 16 C-20 16.66 -20 17.32 -20 18 C-21.32 17.67 -22.64 17.34 -24 17 C-22.58833114 16.01364163 -21.17043816 15.03618745 -19.75 14.0625 C-18.96109375 13.51722656 -18.1721875 12.97195312 -17.359375 12.41015625 C-15.17363007 11.10377559 -13.4846199 10.45019489 -11 10 C-11 9.34 -11 8.68 -11 8 C-9.35546875 6.5625 -9.35546875 6.5625 -7.1875 5 C-6.47980469 4.484375 -5.77210937 3.96875 -5.04296875 3.4375 C-3.37919271 2.26681246 -1.69269789 1.12846526 0 0 Z " fill="#FBEAD5" transform="translate(80,225)"/>
<path d="M0 0 C0.99 0 1.98 0 3 0 C1.2565641 4.24764383 -1.72330953 7.44047673 -4.6875 10.875 C-5.19216797 11.47441406 -5.69683594 12.07382813 -6.21679688 12.69140625 C-9.82130671 16.8928703 -13.70259841 20.51432092 -18 24 C-17.62890625 22.078125 -17.62890625 22.078125 -17 20 C-14.9375 18.75 -14.9375 18.75 -13 18 C-13 16.68 -13 15.36 -13 14 C-7.77272727 9 -7.77272727 9 -5 9 C-4.9175 8.443125 -4.835 7.88625 -4.75 7.3125 C-3.75290104 4.23811154 -2.20770546 2.33757048 0 0 Z " fill="#E99F70" transform="translate(108,191)"/>
<path d="M0 0 C-0.33 1.98 -0.66 3.96 -1 6 C-1.33 6 -1.66 6 -2 6 C-2 4.35 -2 2.7 -2 1 C-3.65 1 -5.3 1 -7 1 C-7.165 1.61875 -7.33 2.2375 -7.5 2.875 C-9.53165147 5.75317292 -11.6451598 5.76990944 -14.97265625 6.42578125 C-17.85571541 7.24237026 -19.69374787 9.14218578 -22 11 C-24.140625 10.61328125 -24.140625 10.61328125 -26 10 C-8.52941176 -2.13235294 -8.52941176 -2.13235294 0 0 Z " fill="#EBA67B" transform="translate(132,160)"/>
<path d="M0 0 C0.33 0.99 0.66 1.98 1 3 C-3.78710001 6.88878001 -8.68263002 10.57319169 -13.8125 14 C-15.15248047 14.8971875 -15.15248047 14.8971875 -16.51953125 15.8125 C-19 17 -19 17 -21.32421875 16.6875 C-21.87722656 16.460625 -22.43023437 16.23375 -23 16 C-22.26136719 15.5153125 -21.52273437 15.030625 -20.76171875 14.53125 C-13.70031745 9.86552106 -6.80385415 5.03592355 0 0 Z " fill="#FCE6D1" transform="translate(205,111)"/>
<path d="M0 0 C0.99 0.33 1.98 0.66 3 1 C-2.12680485 5.74262567 -7.42304318 10.21840336 -12.9375 14.5 C-13.5049292 14.94520996 -14.0723584 15.39041992 -14.65698242 15.84912109 C-18.75905839 19 -18.75905839 19 -21 19 C-20.25 17.0625 -20.25 17.0625 -19 15 C-17.67405895 14.63837971 -16.34061543 14.30271961 -15 14 C-14.67 13.01 -14.34 12.02 -14 11 C-13.34 11 -12.68 11 -12 11 C-11.67 10.01 -11.34 9.02 -11 8 C-9.40625 6.90234375 -9.40625 6.90234375 -7.5 5.9375 C-4.66980932 4.57554472 -4.66980932 4.57554472 -3 2 C-2.01 2 -1.02 2 0 2 C0 1.34 0 0.68 0 0 Z " fill="#E79F6F" transform="translate(220,96)"/>
<path d="M0 0 C3.34252724 -0.07427838 5.8035914 -0.06546953 9 1 C9.6875 3.0625 9.6875 3.0625 10 5 C8.87851563 4.93039063 8.87851563 4.93039063 7.734375 4.859375 C1.78625767 4.51552766 1.78625767 4.51552766 -3.625 6.5625 C-5.38829012 9.68833249 -5.72671902 12.44734731 -6 16 C-6.33 16 -6.66 16 -7 16 C-7 12.7 -7 9.4 -7 6 C-6.34 6 -5.68 6 -5 6 C-4.67 5.01 -4.34 4.02 -4 3 C-3.01 3 -2.02 3 -1 3 C-0.67 2.01 -0.34 1.02 0 0 Z " fill="#65544A" transform="translate(146,135)"/>
<path d="M0 0 C0.33 0 0.66 0 1 0 C1.125 2.875 1.125 2.875 1 6 C0.34 6.66 -0.32 7.32 -1 8 C-1.16677282 11.58343976 -1.16677282 11.58343976 -1 15 C4.11791642 15.10662326 8.92928099 14.71167986 14 14 C11.18140613 16.81859387 8.6905546 17.90923197 4.671875 18.125 C2.44437197 18.125 0.22567441 18.08728135 -2 18 C-4.37258393 13.87774993 -4.09327105 10.52926576 -3 6 C-1.4375 2.5 -1.4375 2.5 0 0 Z " fill="#EEB393" transform="translate(42,228)"/>
<path d="M0 0 C1.125 1.5625 1.125 1.5625 2 4 C1.25 7.6875 1.25 7.6875 0 11 C-0.99 11.495 -0.99 11.495 -2 12 C-1.67 9.36 -1.34 6.72 -1 4 C-6.45750442 4.47047452 -10.12995234 5.33306914 -15 8 C-15.66 8 -16.32 8 -17 8 C-16.67 7.01 -16.34 6.02 -16 5 C-14.35965807 4.27095914 -12.68698082 3.61344757 -11 3 C-10.195625 2.46375 -9.39125 1.9275 -8.5625 1.375 C-5.5038848 -0.26620816 -3.42112846 -0.23868338 0 0 Z " fill="#FEEEDE" transform="translate(132,156)"/>
<path d="M0 0 C1.32 0.33 2.64 0.66 4 1 C4.10853983 3.22808159 4.18583307 5.45769932 4.25 7.6875 C4.29640625 8.92886719 4.3428125 10.17023437 4.390625 11.44921875 C3.93354039 15.60411787 2.82478087 17.00905555 0 20 C-0.76752148 21.09205989 -1.52163688 22.19394236 -2.25 23.3125 C-2.8275 24.199375 -3.405 25.08625 -4 26 C-4.99 25.67 -5.98 25.34 -7 25 C-6.16855469 23.76636719 -6.16855469 23.76636719 -5.3203125 22.5078125 C-0.94376868 15.829568 2.26506148 10.13944411 3 2 C2.01 1.67 1.02 1.34 0 1 C0 0.67 0 0.34 0 0 Z " fill="#FCE8D4" transform="translate(251,50)"/>
<path d="M0 0 C0 3.10551666 -0.5393715 4.35261084 -2 7 C-2.66 7 -3.32 7 -4 7 C-4.20625 7.556875 -4.4125 8.11375 -4.625 8.6875 C-6.62143247 12.04513643 -8.78478875 13.74935212 -12 16 C-14.1953125 15.63671875 -14.1953125 15.63671875 -16 15 C-15.18015625 14.25234375 -14.3603125 13.5046875 -13.515625 12.734375 C-12.42703861 11.73963227 -11.33849945 10.74483787 -10.25 9.75 C-9.71117187 9.25886719 -9.17234375 8.76773438 -8.6171875 8.26171875 C-5.6756284 5.57126836 -2.7926232 2.8468489 0 0 Z " fill="#FCE4CA" transform="translate(237,83)"/>
<path d="M0 0 C0 3.23989523 -0.3060934 4.3069928 -2 7 C-4.2421875 9.10546875 -4.2421875 9.10546875 -6.875 11.1875 C-7.73867188 11.88230469 -8.60234375 12.57710937 -9.4921875 13.29296875 C-11.78322193 14.85244234 -13.29794608 15.5789823 -16 16 C-11.17917294 10.03739811 -5.77505724 5.03320206 0 0 Z " fill="#EB9E71" transform="translate(70,197)"/>
<path d="M0 0 C0.66 0 1.32 0 2 0 C2.3046875 2.203125 2.3046875 2.203125 2 5 C-0.1171875 7.421875 -0.1171875 7.421875 -2.875 9.75 C-3.77992188 10.52859375 -4.68484375 11.3071875 -5.6171875 12.109375 C-8 14 -8 14 -10 15 C-9.71125 14.443125 -9.4225 13.88625 -9.125 13.3125 C-7.948203 11.02153538 -7.948203 11.02153538 -7.1875 8.5625 C-5.68984178 5.3307112 -3.59987431 3.39988398 -1 1 C-0.67 0.67 -0.34 0.34 0 0 Z " fill="#F39358" transform="translate(209,72)"/>
<path d="M0 0 C0.99 0.33 1.98 0.66 3 1 C2.42765625 1.65355469 1.8553125 2.30710938 1.265625 2.98046875 C-1.42664665 6.56861701 -3.30655817 10.28525665 -5.25 14.3125 C-5.61351562 15.05306641 -5.97703125 15.79363281 -6.3515625 16.55664062 C-7.23990537 18.36839254 -8.12072593 20.18382953 -9 22 C-9.33 22 -9.66 22 -10 22 C-10 19.69 -10 17.38 -10 15 C-9.01 15 -8.02 15 -7 15 C-6.34 12.03 -5.68 9.06 -5 6 C-4.34 6 -3.68 6 -3 6 C-2.814375 4.7934375 -2.814375 4.7934375 -2.625 3.5625 C-2.41875 2.716875 -2.2125 1.87125 -2 1 C-1.34 0.67 -0.68 0.34 0 0 Z " fill="#FDF0E0" transform="translate(48,215)"/>
<path d="M0 0 C0.66 0.33 1.32 0.66 2 1 C1.55269531 1.36351563 1.10539063 1.72703125 0.64453125 2.1015625 C-2.45960825 4.68282989 -5.2943674 7.20848595 -7.8125 10.375 C-8.534375 11.24125 -9.25625 12.1075 -10 13 C-10.66 13 -11.32 13 -12 13 C-12.33 13.66 -12.66 14.32 -13 15 C-13 13.68 -13 12.36 -13 11 C-12.01 11 -11.02 11 -10 11 C-10 10.01 -10 9.02 -10 8 C-9.34 8 -8.68 8 -8 8 C-7.34 6.68 -6.68 5.36 -6 4 C-5.34 4 -4.68 4 -4 4 C-3.67 3.01 -3.34 2.02 -3 1 C-2.01 0.67 -1.02 0.34 0 0 Z " fill="#FDE9D4" transform="translate(206,74)"/>
<path d="M0 0 C0.80859375 1.640625 0.80859375 1.640625 1 4 C-0.58570661 6.12217932 -2.09290258 7.8833556 -3.9375 9.75 C-4.41896484 10.25660156 -4.90042969 10.76320312 -5.39648438 11.28515625 C-6.58653954 12.53412504 -7.79186613 13.7685103 -9 15 C-9 9.63302822 -5.23094413 5.33075041 -1.6875 1.5 C-1.130625 1.005 -0.57375 0.51 0 0 Z " fill="#E8A778" transform="translate(53,213)"/>
<path d="M0 0 C-3.0684847 2.97550031 -4.46236331 3.96474513 -8.8125 4.25 C-9.864375 4.1675 -10.91625 4.085 -12 4 C-12.33 2.68 -12.66 1.36 -13 0 C-11.39679026 -0.19551338 -9.79237014 -0.38111983 -8.1875 -0.5625 C-7.29417969 -0.66691406 -6.40085938 -0.77132812 -5.48046875 -0.87890625 C-3 -1 -3 -1 0 0 Z " fill="#605347" transform="translate(155,156)"/>
<path d="M0 0 C0.74056641 0.00451172 1.48113281 0.00902344 2.24414062 0.01367188 C4.05862899 0.02537825 5.87307534 0.04331102 7.6875 0.0625 C7.3575 1.0525 7.0275 2.0425 6.6875 3.0625 C0.0875 2.7325 -6.5125 2.4025 -13.3125 2.0625 C-13.3125 1.7325 -13.3125 1.4025 -13.3125 1.0625 C-8.8746439 -0.04915232 -4.54293614 -0.05277763 0 0 Z " fill="#818181" transform="translate(124.3125,61.9375)"/>
<path d="M0 0 C0.66 0.33 1.32 0.66 2 1 C-1.63 5.95 -5.26 10.9 -9 16 C-9.33 14.68 -9.66 13.36 -10 12 C-9.34 12 -8.68 12 -8 12 C-7.67 10.68 -7.34 9.36 -7 8 C-6.34 8 -5.68 8 -5 8 C-3.79371992 5.66785852 -2.8345262 3.50357861 -2 1 C-1.34 0.67 -0.68 0.34 0 0 Z " fill="#E79F6F" transform="translate(128,167)"/>
<path d="M0 0 C-3.96 3.3 -7.92 6.6 -12 10 C-12.33 8.68 -12.66 7.36 -13 6 C-11.35 5.67 -9.7 5.34 -8 5 C-8 4.01 -8 3.02 -8 2 C-3.71900826 -1.23966942 -3.71900826 -1.23966942 0 0 Z " fill="#FEEED9" transform="translate(77,192)"/>
<path d="M0 0 C0.33 1.32 0.66 2.64 1 4 C0.34 4 -0.32 4 -1 4 C-1.04125 4.721875 -1.0825 5.44375 -1.125 6.1875 C-2.38352165 10.23274817 -4.63589117 11.49481257 -8 14 C-8 9.96618977 -6.40426438 8.50566363 -4 5.3125 C-3.2575 4.31863281 -2.515 3.32476562 -1.75 2.30078125 C-1.1725 1.54152344 -0.595 0.78226563 0 0 Z " fill="#FBE5CE" transform="translate(129,168)"/>
<path d="M0 0 C0.8971875 0.309375 0.8971875 0.309375 1.8125 0.625 C0.21362446 2.10988441 -1.39178905 3.58773145 -3 5.0625 C-3.89332031 5.88621094 -4.78664062 6.70992188 -5.70703125 7.55859375 C-8.1875 9.625 -8.1875 9.625 -11.1875 10.625 C-11.1875 9.635 -11.1875 8.645 -11.1875 7.625 C-10.1975 7.625 -9.2075 7.625 -8.1875 7.625 C-8.1875 6.635 -8.1875 5.645 -8.1875 4.625 C-7.1975 4.625 -6.2075 4.625 -5.1875 4.625 C-5.1875 3.635 -5.1875 2.645 -5.1875 1.625 C-2.1875 -0.375 -2.1875 -0.375 0 0 Z " fill="#FEEAD7" transform="translate(219.1875,62.375)"/>
<path d="M0 0 C1.31677734 0.00580078 1.31677734 0.00580078 2.66015625 0.01171875 C4.9375 0.3125 4.9375 0.3125 6.9375 2.3125 C5.9475 2.6425 4.9575 2.9725 3.9375 3.3125 C3.9375 2.6525 3.9375 1.9925 3.9375 1.3125 C0.96684491 1.65477572 0.96684491 1.65477572 -2.0625 2.3125 C-2.3925 2.9725 -2.7225 3.6325 -3.0625 4.3125 C-4.0525 4.6425 -5.0425 4.9725 -6.0625 5.3125 C-6.3925 5.9725 -6.7225 6.6325 -7.0625 7.3125 C-7.7225 7.3125 -8.3825 7.3125 -9.0625 7.3125 C-8.08971462 1.67034477 -5.65455433 -0.10826098 0 0 Z " fill="#6E6F70" transform="translate(148.0625,133.6875)"/>
<path d="M0 0 C0.33 0.99 0.66 1.98 1 3 C-1.97 5.31 -4.94 7.62 -8 10 C-8.66 9.67 -9.32 9.34 -10 9 C-7.12505529 5.01930733 -4.17882671 2.56428003 0 0 Z " fill="#FEEDDC" transform="translate(205,111)"/>
<path d="M0 0 C1.32 0.33 2.64 0.66 4 1 C2.35718838 2.66964521 0.71067239 4.3356464 -0.9375 6 C-1.85402344 6.928125 -2.77054688 7.85625 -3.71484375 8.8125 C-6 11 -6 11 -7 11 C-7 9.35 -7 7.7 -7 6 C-6.01 6 -5.02 6 -4 6 C-4 5.34 -4 4.68 -4 4 C-2.68 3.67 -1.36 3.34 0 3 C0 2.01 0 1.02 0 0 Z " fill="#EC9B6A" transform="translate(231,85)"/>
<path d="M0 0 C0.99 0.33 1.98 0.66 3 1 C1.38113585 2.67262717 -0.2452729 4.33795537 -1.875 6 C-2.77992187 6.928125 -3.68484375 7.85625 -4.6171875 8.8125 C-7 11 -7 11 -9 11 C-9 8 -9 8 -7.6875 6.3125 C-6 5 -6 5 -3 5 C-3 4.01 -3 3.02 -3 2 C-2.01 2 -1.02 2 0 2 C0 1.34 0 0.68 0 0 Z " fill="#EAA273" transform="translate(87,215)"/>
<path d="M0 0 C1.65 0 3.3 0 5 0 C0.57557408 3.71080883 -4.17403931 6.84577733 -9 10 C-9.33 9.01 -9.66 8.02 -10 7 C-7 5 -7 5 -4 5 C-4 4.34 -4 3.68 -4 3 C-3.01 3 -2.02 3 -1 3 C-0.67 2.01 -0.34 1.02 0 0 Z " fill="#FEEFDD" transform="translate(231,52)"/>
<path d="M0 0 C0 4.82034999 -1.33364049 7.28604338 -4.625 10.8125 C-5.40875 11.534375 -6.1925 12.25625 -7 13 C-7.99 12.67 -8.98 12.34 -10 12 C-8.71937515 10.2925002 -7.38232443 8.62626404 -6 7 C-5.34 7 -4.68 7 -4 7 C-3.71125 6.21625 -3.4225 5.4325 -3.125 4.625 C-2 2 -2 2 0 0 Z " fill="#FAE2C8" transform="translate(119,182)"/>
<path d="M0 0 C0.66 0.33 1.32 0.66 2 1 C-2.87508592 4.90006874 -5.75619821 5.62438018 -12 5 C-12.66 4.34 -13.32 3.68 -14 3 C-13.11248047 2.92652344 -13.11248047 2.92652344 -12.20703125 2.8515625 C-7.74890955 2.42975001 -4.14903887 1.76019831 0 0 Z " fill="#FEF4E3" transform="translate(54,243)"/>
<path d="M0 0 C0.33 0 0.66 0 1 0 C1.125 2.875 1.125 2.875 1 6 C0.34 6.66 -0.32 7.32 -1 8 C-1.24212873 9.98128508 -1.24212873 9.98128508 -1.125 12.125 C-1.063125 14.043125 -1.063125 14.043125 -1 16 C-1.66 16 -2.32 16 -3 16 C-4.64451156 9.5589964 -3.05498079 5.78217394 0 0 Z " fill="#E49D72" transform="translate(42,228)"/>
<path d="M0 0 C0.33 0.66 0.66 1.32 1 2 C-0.25 5.0625 -0.25 5.0625 -2 8 C-2.99 8.33 -3.98 8.66 -5 9 C-5.33 9.99 -5.66 10.98 -6 12 C-8.0625 12.6875 -8.0625 12.6875 -10 13 C-7.02480663 8.30834891 -3.68606635 4.15296809 0 0 Z " fill="#FCE8D0" transform="translate(108,195)"/>
<path d="M0 0 C1.65 0 3.3 0 5 0 C5 1.98 5 3.96 5 6 C3.68 6.33 2.36 6.66 1 7 C0.896875 7.598125 0.79375 8.19625 0.6875 8.8125 C-0.08876455 11.28243264 -1.07088921 12.32251235 -3 14 C-2.03193901 8.96608285 0.07016106 4.36843337 4 1 C2.68 0.67 1.36 0.34 0 0 Z " fill="#EF955D" transform="translate(125,161)"/>
<path d="M0 0 C0 0.99 0 1.98 0 3 C-5.25714286 7 -5.25714286 7 -8 7 C-8 7.66 -8 8.32 -8 9 C-9.65 9.33 -11.3 9.66 -13 10 C-9.37067545 5.05092107 -6.74873464 3.10049919 -1 1 C-0.67 0.67 -0.34 0.34 0 0 Z " fill="#F69359" transform="translate(114,167)"/>
<path d="M0 0 C0.66 0 1.32 0 2 0 C0.5140084 4.59306496 -1.85014682 7.43569245 -5 11 C-5.33 9.68 -5.66 8.36 -6 7 C-5.34 7 -4.68 7 -4 7 C-3.67 5.35 -3.34 3.7 -3 2 C-2.01 2 -1.02 2 0 2 C0 1.34 0 0.68 0 0 Z " fill="#E99F68" transform="translate(245,70)"/>
<path d="M0 0 C0.66 0 1.32 0 2 0 C2.33 1.32 2.66 2.64 3 4 C5.31 4 7.62 4 10 4 C9.01 5.485 9.01 5.485 8 7 C4.375 7.1875 4.375 7.1875 1 7 C0.67 4.69 0.34 2.38 0 0 Z " fill="#FDEBD9" transform="translate(159,131)"/>
<path d="M0 0 C-0.34879632 3.25543229 -1.02133261 4.01873107 -3.5625 6.25 C-4.366875 6.8275 -5.17125 7.405 -6 8 C-6.66 7.67 -7.32 7.34 -8 7 C-4.13157895 0 -4.13157895 0 0 0 Z " fill="#F3945C" transform="translate(76,195)"/>
<path d="M0 0 C0.66 0.33 1.32 0.66 2 1 C-1.3 4.3 -4.6 7.6 -8 11 C-8 6.67750434 -5.85084926 5.11604454 -3 2 C-2.01 1.34 -1.02 0.68 0 0 Z " fill="#D8D8D8" transform="translate(136,128)"/>
<path d="M0 0 C0.78375 0.04125 1.5675 0.0825 2.375 0.125 C1.39933888 1.29459987 0.419375 2.46061177 -0.5625 3.625 C-1.10777344 4.2746875 -1.65304688 4.924375 -2.21484375 5.59375 C-2.68019531 6.0990625 -3.14554688 6.604375 -3.625 7.125 C-3.955 7.125 -4.285 7.125 -4.625 7.125 C-4.75 4.75 -4.75 4.75 -4.625 2.125 C-2.625 0.125 -2.625 0.125 0 0 Z " fill="#FDEFDC" transform="translate(61.625,201.875)"/>
<path d="M0 0 C0.99 0.33 1.98 0.66 3 1 C1.71372289 2.17260611 0.42080217 3.3379283 -0.875 4.5 C-1.59429687 5.1496875 -2.31359375 5.799375 -3.0546875 6.46875 C-5 8 -5 8 -7 8 C-6.67 6.68 -6.34 5.36 -6 4 C-5.34 4 -4.68 4 -4 4 C-4 3.34 -4 2.68 -4 2 C-2.68 2 -1.36 2 0 2 C0 1.34 0 0.68 0 0 Z " fill="#FDEDDA" transform="translate(84,183)"/>
<path d="M0 0 C0 0.33 0 0.66 0 1 C-4.455 1.495 -4.455 1.495 -9 2 C-9 4.31 -9 6.62 -9 9 C-9.33 9 -9.66 9 -10 9 C-10.29296875 2.9453125 -10.29296875 2.9453125 -10 1 C-6.1496895 -1.56687367 -4.41430237 -0.83288724 0 0 Z " fill="#F19457" transform="translate(152,142)"/>
<path d="M0 0 C0 0.66 0 1.32 0 2 C-3 4 -3 4 -6 4 C-6.33 4.99 -6.66 5.98 -7 7 C-8.32 6.67 -9.64 6.34 -11 6 C-9.54550599 4.9944239 -8.08627557 3.99569565 -6.625 3 C-5.40683594 2.1646875 -5.40683594 2.1646875 -4.1640625 1.3125 C-2 0 -2 0 0 0 Z " fill="#EAB089" transform="translate(238,52)"/>
<path d="M0 0 C-0.33 1.98 -0.66 3.96 -1 6 C-1.33 6 -1.66 6 -2 6 C-2 4.35 -2 2.7 -2 1 C-6.455 1.495 -6.455 1.495 -11 2 C-7.49890112 -1.50109888 -4.63591413 -1.15897853 0 0 Z " fill="#E0AA86" transform="translate(132,160)"/>
<path d="M0 0 C0.33 0.99 0.66 1.98 1 3 C-1.31 4.65 -3.62 6.3 -6 8 C-6.66 7.67 -7.32 7.34 -8 7 C-5.36 4.69 -2.72 2.38 0 0 Z " fill="#E79F74" transform="translate(219,64)"/>
<path d="M0 0 C0.99 0.33 1.98 0.66 3 1 C1.12050295 4.57104439 -0.17053157 6.54744301 -4 8 C-4 6.35 -4 4.7 -4 3 C-2.68 3 -1.36 3 0 3 C0 2.01 0 1.02 0 0 Z " fill="#E89F6F" transform="translate(115,183)"/>
<path d="M0 0 C1.32 0 2.64 0 4 0 C5.75 2 5.75 2 7 4 C6.67 4.66 6.34 5.32 6 6 C3.37812506 4.95125002 2.20628639 4.35068687 0.75 1.875 C0.5025 1.25625 0.255 0.6375 0 0 Z " fill="#666365" transform="translate(137,154)"/>
<path d="M0 0 C1.32 0 2.64 0 4 0 C4 0.66 4 1.32 4 2 C6.31 2 8.62 2 11 2 C10.67 2.66 10.34 3.32 10 4 C7.25 4.25 7.25 4.25 4 4 C1.625 2 1.625 2 0 0 Z " fill="#D28E64" transform="translate(141,151)"/>
<path d="M0 0 C0.66 0 1.32 0 2 0 C1.67 1.32 1.34 2.64 1 4 C0.360625 4.103125 -0.27875 4.20625 -0.9375 4.3125 C-1.618125 4.539375 -2.29875 4.76625 -3 5 C-3.33 5.99 -3.66 6.98 -4 8 C-4.99 7.67 -5.98 7.34 -7 7 C-6.21625 6.401875 -5.4325 5.80375 -4.625 5.1875 C-1.85425677 3.08914751 -1.85425677 3.08914751 0 0 Z " fill="#E6A77A" transform="translate(209,72)"/>
<path d="M0 0 C0.66 0.33 1.32 0.66 2 1 C0.35 4.63 -1.3 8.26 -3 12 C-3.33 12 -3.66 12 -4 12 C-4 9.69 -4 7.38 -4 5 C-3.01 5 -2.02 5 -1 5 C-0.67 3.35 -0.34 1.7 0 0 Z " fill="#F9DBC2" transform="translate(42,225)"/>
<path d="M0 0 C0.66 0.33 1.32 0.66 2 1 C-0.25 3.5625 -0.25 3.5625 -3 6 C-4.32 5.67 -5.64 5.34 -7 5 C-4.69 3.35 -2.38 1.7 0 0 Z " fill="#EAA884" transform="translate(104,171)"/>
<path d="M0 0 C4.95 0 9.9 0 15 0 C12.22957891 2.77042109 10.23466195 2.39796106 6.375 2.625 C5.18648437 2.69976562 3.99796875 2.77453125 2.7734375 2.8515625 C1.40058594 2.92503906 1.40058594 2.92503906 0 3 C0 2.01 0 1.02 0 0 Z " fill="#C9C9C8" transform="translate(139,167)"/>
<path d="M0 0 C0.66 0.33 1.32 0.66 2 1 C1 4 1 4 -2 6 C-4.1875 5.625 -4.1875 5.625 -6 5 C-4.02 3.35 -2.04 1.7 0 0 Z " fill="#FCE1CC" transform="translate(212,105)"/>
<path d="M0 0 C1.32 0.33 2.64 0.66 4 1 C2.02 3.31 0.04 5.62 -2 8 C-2.33 6.68 -2.66 5.36 -3 4 C-1.5625 1.75 -1.5625 1.75 0 0 Z " fill="#FEF0E0" transform="translate(186,92)"/>
<path d="M0 0 C0.33 0 0.66 0 1 0 C1.125 2.375 1.125 2.375 1 5 C0.34 5.66 -0.32 6.32 -1 7 C-3.125 6.625 -3.125 6.625 -5 6 C-3.35830472 3.97945196 -1.69088222 1.97956942 0 0 Z " fill="#FCEACE" transform="translate(243,76)"/>
<path d="M0 0 C2.31 0.33 4.62 0.66 7 1 C6.67 1.66 6.34 2.32 6 3 C3.69 3 1.38 3 -1 3 C-0.67 2.01 -0.34 1.02 0 0 Z " fill="#595654" transform="translate(144,157)"/>
<path d="M0 0 C2.475 0.495 2.475 0.495 5 1 C5.33 4.3 5.66 7.6 6 11 C5.67 11 5.34 11 5 11 C4.731875 9.741875 4.46375 8.48375 4.1875 7.1875 C3.40467463 4.00551199 2.74664072 1.99755689 0 0 Z " fill="#865D45" transform="translate(151,139)"/>
<path d="M0 0 C0.33 0 0.66 0 1 0 C1.1546875 1.423125 1.1546875 1.423125 1.3125 2.875 C1.68539295 6.29107501 1.68539295 6.29107501 5 8 C3.33388095 8.042721 1.66617115 8.04063832 0 8 C-0.33 7.67 -0.66 7.34 -1 7 C-0.71269945 4.66055264 -0.38063221 2.3260857 0 0 Z " fill="#E2AA86" transform="translate(162,128)"/>
<path d="M0 0 C1.65 1.65 3.3 3.3 5 5 C4.67 5.66 4.34 6.32 4 7 C2.35 6.01 0.7 5.02 -1 4 C-0.67 2.68 -0.34 1.36 0 0 Z " fill="#707070" transform="translate(127,93)"/>
<path d="M0 0 C-2.25 2.0625 -2.25 2.0625 -5 4 C-7.3125 3.75 -7.3125 3.75 -9 3 C-6.40821726 0.40821726 -3.54324677 -1.77162338 0 0 Z " fill="#FDEEDF" transform="translate(230,95)"/>
<path d="M0 0 C0.99 0.33 1.98 0.66 3 1 C0.03 3.475 0.03 3.475 -3 6 C-2.625 3.5625 -2.625 3.5625 -2 1 C-1.34 0.67 -0.68 0.34 0 0 Z " fill="#FEEBD6" transform="translate(54,209)"/>
<path d="M0 0 C0 0.99 0 1.98 0 3 C-1.96466413 4.06775224 -3.96855359 5.06553465 -6 6 C-6.66 5.67 -7.32 5.34 -8 5 C-2.25 0 -2.25 0 0 0 Z " fill="#E5A77C" transform="translate(79,191)"/>
<path d="M0 0 C0.75 1.75 0.75 1.75 1 4 C-0.9375 6.25 -0.9375 6.25 -3 8 C-3.33 7.34 -3.66 6.68 -4 6 C-2.68 4.02 -1.36 2.04 0 0 Z " fill="#ECAA80" transform="translate(167,120)"/>
<path d="M0 0 C0.99 0 1.98 0 3 0 C1.70700306 2.88437779 0.34058637 4.87219421 -2 7 C-1.125 1.125 -1.125 1.125 0 0 Z " fill="#FEEEDA" transform="translate(172,109)"/>
</svg>
