<?xml version="1.0" encoding="UTF-8"?>
<svg version="1.1" xmlns="http://www.w3.org/2000/svg" width="1016" height="245">
<path d="M0 0 C1.33289812 2.29892204 2.22929507 4.25120721 3.12109375 6.71875 C3.51924034 7.74696869 3.51924034 7.74696869 3.9254303 8.79595947 C4.7823418 11.02373146 5.61012776 13.26110877 6.4375 15.5 C7.01797431 17.02695997 7.60000654 18.5533286 8.18359375 20.07910156 C11.52741792 28.86375435 14.77441687 37.68670086 17.8125 46.58203125 C18.96588441 49.90180545 20.21293161 53.16754188 21.5 56.4375 C23.37501361 61.2429594 25.03474122 66.09480431 26.625 71 C29.16208267 78.76428112 31.95558199 86.4273629 34.83538818 94.06982422 C35.5447452 95.95286848 36.24924247 97.83774118 36.95361328 99.72265625 C41.58683658 114.1441294 41.58683658 114.1441294 52 124 C58.95368921 125.94703298 66.86721571 124.81552026 73.4453125 121.92578125 C77.42411513 119.59869558 80.22799602 117.37789218 82 113 C82.99415663 107.43467658 83.20854732 101.9701634 83.31640625 96.3359375 C83.34798576 94.93486755 83.34798576 94.93486755 83.38020325 93.50549316 C83.44666528 90.46208127 83.50573206 87.41860752 83.5625 84.375 C83.59177582 82.81897064 83.59177582 82.81897064 83.62164307 81.23150635 C83.72005009 75.89792751 83.81110409 70.56427915 83.89599609 65.23046875 C83.96012522 61.23794839 84.0352008 57.24596294 84.12353516 53.25390625 C84.21891232 48.92585749 84.29022546 44.5981444 84.34103394 40.26934814 C84.36354845 38.68224662 84.39463825 37.09524194 84.43460083 35.50848389 C84.48797892 33.31511355 84.50972144 31.1236138 84.5234375 28.9296875 C84.54325684 27.70491699 84.56307617 26.48014648 84.58349609 25.21826172 C83.83147457 21.07050116 82.20041899 19.64503369 79 17 C73.42321014 13.4570982 67.40016906 11.31839803 61.03125 9.67578125 C59 9 59 9 57 7 C57.375 4.375 57.375 4.375 58 2 C64.88659991 1.873149 71.77289823 1.78562734 78.66040039 1.7253418 C81.00296284 1.70020875 83.34544695 1.66609692 85.68774414 1.62280273 C89.05634899 1.56210072 92.42391649 1.53377749 95.79296875 1.51171875 C97.36198189 1.47300911 97.36198189 1.47300911 98.96269226 1.43351746 C106.26145724 1.43070662 106.26145724 1.43070662 110.0234375 4.33056641 C110.67570313 5.21147949 111.32796875 6.09239258 112 7 C112.50893799 7.55905029 113.01787598 8.11810059 113.54223633 8.6940918 C113.96786865 9.19078369 114.39350098 9.68747559 114.83203125 10.19921875 C115.31607422 10.76318359 115.80011719 11.32714844 116.29882812 11.90820312 C116.79833984 12.49537109 117.29785156 13.08253906 117.8125 13.6875 C118.34166016 14.30689453 118.87082031 14.92628906 119.41601562 15.56445312 C122.98308086 19.75716682 126.44307606 24.02175203 129.84765625 28.34765625 C131.57300544 30.47381251 133.32763558 32.5531212 135.12109375 34.62109375 C135.9419043 35.56758789 135.9419043 35.56758789 136.77929688 36.53320312 C137.86634246 37.78157703 138.95735939 39.02650635 140.05273438 40.26757812 C142.28377603 42.82850142 143.91458872 44.74376616 145 48 C145.66 48 146.32 48 147 48 C148.60634015 49.73391951 150.1375287 51.538091 151.625 53.375 C152.44226563 54.37273437 153.25953125 55.37046875 154.1015625 56.3984375 C156 59 156 59 156 61 C156.66 61 157.32 61 158 61 C159.33264423 62.48856066 160.59219479 64.04303645 161.8125 65.625 C164.15514716 68.6375845 166.49818331 71.61825126 169 74.5 C171 77 171 77 171 79 C171.66 79 172.32 79 173 79 C174.62356346 80.96937661 176.13559566 82.93345148 177.625 85 C178.04523438 85.57234375 178.46546875 86.1446875 178.8984375 86.734375 C179.93805801 88.15203933 180.96977591 89.57549262 182 91 C185.56366196 50.46665555 185.56366196 50.46665555 174 14 C168.71828312 10.84347098 162.96663238 9.3018107 157 8 C157 6.35 157 4.7 157 3 C159.56467115 1.71766442 161.38868722 1.87296147 164.26000977 1.87060547 C165.35777237 1.86745331 166.45553497 1.86430115 167.58656311 1.86105347 C169.37096046 1.86408981 169.37096046 1.86408981 171.19140625 1.8671875 C172.40698715 1.86623077 173.62256805 1.86527405 174.87498474 1.86428833 C177.44815116 1.86360688 180.02131929 1.86545872 182.59448242 1.86962891 C186.54935536 1.87498221 190.50411497 1.86968032 194.45898438 1.86328125 C196.95312525 1.86394195 199.44726606 1.86522293 201.94140625 1.8671875 C203.13302872 1.86516327 204.32465118 1.86313904 205.55238342 1.86105347 C206.64699387 1.86420563 207.74160431 1.86735779 208.86938477 1.87060547 C210.32260887 1.87179886 210.32260887 1.87179886 211.80519104 1.87301636 C214 2 214 2 215 3 C215.125 5.5 215.125 5.5 215 8 C213.3972044 9.6027956 211.52623175 9.19668444 209.3125 9.3125 C204.5323185 9.77003166 201.61530401 10.64923043 198 14 C195.25089069 19.34081233 194.29843142 24.1176092 193.81640625 30.0703125 C193.69610802 31.51290939 193.69610802 31.51290939 193.57337952 32.98464966 C192.31771139 50.86234695 192.82243007 68.86949504 192.92095947 86.77801514 C192.96471593 94.97080597 192.99374902 103.16363843 193.0170002 111.35651016 C193.02721685 114.20678425 193.04423897 117.05696023 193.06199646 119.90719604 C193.06881546 121.63197749 193.07542437 123.35675978 193.08178711 125.08154297 C193.09189316 126.2702726 193.09189316 126.2702726 193.10220337 127.48301697 C193.10609147 129.32232273 193.05870681 131.16162726 193 133 C191.05530541 134.94469459 188.37264016 134.84956068 185.75 135.1875 C179.32335655 135.14843226 179.32335655 135.14843226 176.27490234 132.50292969 C172.58053027 128.17979861 169.63078333 123.33418355 166.62646484 118.51904297 C164.06038428 114.54473807 161.16449989 110.84724001 158.25 107.125 C157.16669888 105.72233399 156.08463417 104.31871207 155.00390625 102.9140625 C154.23844482 101.92067871 154.23844482 101.92067871 153.45751953 100.90722656 C151.33432249 98.12893255 149.26379741 95.31350764 147.1875 92.5 C143.84202201 88.0021907 140.2711768 83.82663262 136.43359375 79.7421875 C135 78 135 78 135 76 C134.34 76 133.68 76 133 76 C131.2734375 74.1015625 131.2734375 74.1015625 129.375 71.625 C128.74335938 70.81289062 128.11171875 70.00078125 127.4609375 69.1640625 C126 67 126 67 126 65 C125.34 65 124.68 65 124 65 C122.6697891 63.48772933 121.40972409 61.91330976 120.1875 60.3125 C117.91041484 57.38007886 115.69545841 54.55643764 113 52 C112.34 51.34 111.68 50.68 111 50 C111 49.34 111 48.68 111 48 C110.34 48 109.68 48 109 48 C107.50370821 46.3214487 106.07707339 44.58041102 104.6875 42.8125 C101.64660693 38.95588349 98.49531449 35.44812466 95 32 C95.06147067 41.45862121 95.138761 50.91694734 95.23571491 60.3752718 C95.28025902 64.76814721 95.31954934 69.16093329 95.34643555 73.55395508 C95.37262901 77.80111841 95.41314201 82.04793495 95.46318626 86.29488182 C95.47974733 87.90736737 95.49132808 89.51991275 95.49761391 91.13247108 C95.53624361 100.13948042 95.97697625 108.40491961 99 117 C99.33 117.99 99.66 118.98 100 120 C104.92659322 122.54980795 110.52154118 123.17901945 115.91796875 124.21875 C119 125 119 125 121 127 C121.125 129.625 121.125 129.625 121 132 C117.52045097 132.78782556 114.30743037 133.12707374 110.74263 133.13371277 C109.18424408 133.14011024 109.18424408 133.14011024 107.59437561 133.14663696 C106.46535324 133.14618378 105.33633087 133.14573059 104.1730957 133.14526367 C102.37728561 133.15030159 102.37728561 133.15030159 100.54519653 133.15544128 C97.27065945 133.16330228 93.99616046 133.16661806 90.72161508 133.16725707 C88.67610862 133.16796864 86.63060879 133.17010487 84.58510399 133.17275429 C77.45053053 133.18199483 70.31597573 133.18609036 63.18139648 133.18530273 C56.52674205 133.18470071 49.87216835 133.19528017 43.21753436 133.2110464 C37.50364529 133.22410245 31.78978269 133.22948752 26.0758788 133.22884732 C22.66313438 133.22859197 19.2504619 133.23146411 15.83773232 133.24202538 C12.03799234 133.25176536 8.2384637 133.24897154 4.4387207 133.24291992 C3.30362564 133.24853943 2.16853058 133.25415894 0.9990387 133.25994873 C-0.03142578 133.25575424 -1.06189026 133.25155975 -2.12358093 133.24723816 C-3.47164086 133.24805531 -3.47164086 133.24805531 -4.84693432 133.24888897 C-7 133 -7 133 -9 131 C-8.9375 129 -8.9375 129 -8 127 C-4.95788204 125.28880865 -1.82542366 124.77244505 1.5625 124.125 C4.45965074 123.49245542 6.04316826 122.97157212 8.5625 121.3125 C10.593685 118.04494153 10.25748364 115.81934067 10 112 C9.19248299 109.40262571 8.34422203 107.00003787 7.3125 104.5 C6.76206174 103.10114806 6.21394123 101.70138222 5.66796875 100.30078125 C5.2510376 99.23851318 5.2510376 99.23851318 4.82568359 98.15478516 C3.50043108 94.69627579 2.30139503 91.1989722 1.125 87.6875 C0.71507813 86.47449219 0.30515625 85.26148438 -0.1171875 84.01171875 C-1 81 -1 81 -1 78 C-13.21 78.33 -25.42 78.66 -38 79 C-39.98 83.95 -41.96 88.9 -44 94 C-44.62648437 95.54558594 -45.25296875 97.09117187 -45.8984375 98.68359375 C-46.39170532 99.93447036 -46.88395887 101.18574761 -47.375 102.4375 C-47.63410156 103.06591797 -47.89320312 103.69433594 -48.16015625 104.34179688 C-50.36053962 110.01738889 -50.94849119 115.15452642 -49 121 C-46.13200898 122.7981337 -43.05340218 123.64815389 -39.8125 124.5625 C-35.10816327 125.89183673 -35.10816327 125.89183673 -34 127 C-34 128.65 -34 130.3 -34 132 C-50.5 132 -67 132 -84 132 C-84.33 130.68 -84.66 129.36 -85 128 C-82.2143186 126.22729366 -79.67949005 124.88345093 -76.5625 123.75 C-63.20923877 117.19050325 -58.76991311 97.04388815 -53.69018555 84.18408203 C-50.97789739 77.34654499 -48.08816952 70.68479003 -44.91015625 64.05078125 C-40.35243956 54.48480351 -36.1923287 44.72989847 -32 35 C-31.40131104 33.62787354 -31.40131104 33.62787354 -30.79052734 32.22802734 C-29.73268309 29.786105 -28.70478385 27.33404397 -27.6875 24.875 C-27.37941406 24.17205811 -27.07132813 23.46911621 -26.75390625 22.74487305 C-24.74612321 17.74795428 -25.33491426 15.00114091 -27 10 C-26.625 7.0625 -26.625 7.0625 -26 5 C-24.90300781 4.73445313 -23.80601563 4.46890625 -22.67578125 4.1953125 C-21.22130753 3.83873185 -19.76688302 3.4819504 -18.3125 3.125 C-17.59126953 2.95097656 -16.87003906 2.77695312 -16.12695312 2.59765625 C-13.0422008 1.83703239 -10.20791473 1.0918065 -7.29296875 -0.1953125 C-4.29397971 -1.24776862 -2.97762855 -1.13213699 0 0 Z M-20 28 C-23.80334008 35.4888776 -26.44809792 43.16424701 -28.85595703 51.18481445 C-29.96473883 54.85107007 -31.11376049 58.39161341 -32.6796875 61.890625 C-34.19542339 64.89721421 -34.19542339 64.89721421 -34 68 C-24.43 68 -14.86 68 -5 68 C-5.65045646 64.74771771 -6.27625483 61.91582916 -7.3046875 58.8203125 C-7.55863281 58.05589844 -7.81257813 57.29148437 -8.07421875 56.50390625 C-8.33847656 55.71886719 -8.60273437 54.93382813 -8.875 54.125 C-9.13152344 53.34769531 -9.38804688 52.57039063 -9.65234375 51.76953125 C-11.22565617 47.06540617 -12.99931122 42.53814771 -15 38 C-15.73617634 36.19033576 -16.46621416 34.37815057 -17.1875 32.5625 C-17.53167969 31.69753906 -17.87585938 30.83257812 -18.23046875 29.94140625 C-18.48441406 29.30074219 -18.73835938 28.66007812 -19 28 C-19.33 28 -19.66 28 -20 28 Z " fill="#FEFEFE" transform="translate(94,56)"/>
<path d="M0 0 C5.2640744 -0.10226052 10.52753667 -0.18403697 15.79241943 -0.22991943 C17.36986438 -0.24661834 18.94725334 -0.27034458 20.5244751 -0.30169678 C35.21721895 -0.58316242 48.8361389 1.84829988 60.06591797 12.05718994 C60.06591797 12.71718994 60.06591797 13.37718994 60.06591797 14.05718994 C60.72591797 14.05718994 61.38591797 14.05718994 62.06591797 14.05718994 C68.19491486 24.75402413 71.72164097 35.16213171 68.88623047 47.49078369 C65.91404574 56.78947593 60.60625928 62.82517529 52.00341797 67.30718994 C48.78484812 68.85863587 45.463143 69.95851291 42.06591797 71.05718994 C46.62158447 78.62857934 51.66896669 85.67157175 57.06494141 92.66070557 C57.56799805 93.31748291 58.07105469 93.97426025 58.58935547 94.65093994 C59.0422998 95.23552979 59.49524414 95.82011963 59.96191406 96.42242432 C61.06591797 98.05718994 61.06591797 98.05718994 62.06591797 101.05718994 C62.72591797 101.05718994 63.38591797 101.05718994 64.06591797 101.05718994 C65.47607422 102.52593994 65.47607422 102.52593994 67.12841797 104.55718994 C74.01666892 112.6148748 81.88820891 120.16119132 92.37841797 122.93218994 C94.9369625 123.05119201 96.72330968 123.09834918 99.06591797 122.05718994 C100.08373325 119.00374409 100.18689037 116.95435202 100.17944336 113.75958252 C100.17936783 112.67868851 100.1792923 111.59779449 100.17921448 110.48414612 C100.17405319 109.31844589 100.16889191 108.15274567 100.16357422 106.95172119 C100.16215927 105.75737961 100.16074432 104.56303802 100.1592865 103.33250427 C100.15368146 99.51154086 100.14112808 95.69063569 100.12841797 91.86968994 C100.12340362 89.28180016 100.1188406 86.69390946 100.11474609 84.10601807 C100.1037104 77.75638876 100.08696733 71.40679351 100.06591797 65.05718994 C95.98951811 62.92764212 92.65274189 61.60324041 88.06591797 61.05718994 C88.06591797 59.07718994 88.06591797 57.09718994 88.06591797 55.05718994 C92.5026752 52.83881133 98.18701329 53.03080512 103.06591797 52.49468994 C104.85835937 52.28682861 104.85835937 52.28682861 106.68701172 52.07476807 C120.62718058 50.52501216 120.62718058 50.52501216 127.06591797 51.05718994 C128.06591797 52.05718994 128.06591797 52.05718994 128.17944336 54.08859253 C128.17420654 54.98266815 128.16896973 55.87674377 128.16357422 56.7979126 C128.15861938 58.31682602 128.15861938 58.31682602 128.15356445 59.86642456 C128.14526611 60.97351776 128.13696777 62.08061096 128.12841797 63.22125244 C128.12273804 64.93035294 128.12273804 64.93035294 128.11694336 66.67398071 C128.10060444 71.56152749 128.07283864 76.44899151 128.04541016 81.33648682 C127.90593574 97.71239213 127.90593574 97.71239213 128.31591797 114.08062744 C128.36232422 115.19099365 128.40873047 116.30135986 128.45654297 117.44537354 C128.84366402 120.17509647 128.84366402 120.17509647 130.96533203 121.8850708 C133.26644616 123.16908393 135.23236007 123.75077446 137.81591797 124.24468994 C139.01474609 124.48252197 139.01474609 124.48252197 140.23779297 124.72515869 C140.84107422 124.834729 141.44435547 124.94429932 142.06591797 125.05718994 C142.06591797 126.37718994 142.06591797 127.69718994 142.06591797 129.05718994 C140.01921618 131.10389173 135.74121165 130.27708321 132.92529297 130.3135376 C132.0715358 130.32814026 131.21777863 130.34274292 130.33815002 130.35778809 C122.43858131 130.48407216 114.53798686 130.55260258 106.63761902 130.60563087 C101.32927794 130.64135208 96.02245742 130.69453927 90.71484375 130.79107666 C85.58473744 130.88411014 80.4559754 130.93258721 75.32507324 130.95002365 C73.37299263 130.96408716 71.42095736 130.99365746 69.46936035 131.03932571 C54.22224053 131.37853972 54.22224053 131.37853972 48.80957031 128.06176758 C46.51183688 125.83395498 44.6869976 123.81178719 43.06591797 121.05718994 C43.06591797 120.39718994 43.06591797 119.73718994 43.06591797 119.05718994 C42.40591797 119.05718994 41.74591797 119.05718994 41.06591797 119.05718994 C39.82910156 117.7119751 39.82910156 117.7119751 38.46435547 115.84625244 C37.97451172 115.17851807 37.48466797 114.51078369 36.97998047 113.82281494 C36.47208984 113.11640869 35.96419922 112.41000244 35.44091797 111.68218994 C34.66748047 110.63418213 34.66748047 110.63418213 33.87841797 109.56500244 C30.06591797 104.32029345 30.06591797 104.32029345 30.06591797 102.05718994 C29.40591797 102.05718994 28.74591797 102.05718994 28.06591797 102.05718994 C26.38598633 99.80987549 26.38598633 99.80987549 24.40576172 96.69390869 C24.05582657 96.14612259 23.70589142 95.59833649 23.34535217 95.03395081 C22.60489361 93.87170695 21.86788137 92.70726149 21.1340332 91.54083252 C20.01176807 89.75795527 18.87872787 87.98232281 17.74365234 86.20758057 C12.21636121 77.50851968 12.21636121 77.50851968 11.06591797 74.05718994 C7.10591797 73.39718994 3.14591797 72.73718994 -0.93408203 72.05718994 C-0.83952805 76.84062223 -0.73322834 81.62360767 -0.61669922 86.40655518 C-0.57875008 88.02888106 -0.54384231 89.65128139 -0.51220703 91.27374268 C-0.72003653 104.916017 -0.72003653 104.916017 2.06591797 118.05718994 C5.22988938 120.94937907 8.16231358 121.79658459 12.31591797 122.74468994 C13.39357422 122.99605713 14.47123047 123.24742432 15.58154297 123.50640869 C16.40138672 123.6881665 17.22123047 123.86992432 18.06591797 124.05718994 C18.44810564 125.71333651 18.77986899 127.38176019 19.06591797 129.05718994 C18.06591797 130.05718994 18.06591797 130.05718994 15.36412048 130.17744446 C14.1583284 130.17522385 12.95253632 130.17300323 11.71020508 130.17071533 C11.04681625 130.17086136 10.38342743 130.17100739 9.69993591 130.17115784 C7.49767841 130.17045875 5.29550452 130.16266659 3.09326172 130.15484619 C1.57011461 130.152982 0.0469669 130.1515581 -1.47618103 130.15055847 C-5.49245854 130.1467334 -9.50870011 130.13690322 -13.52496338 130.12585449 C-17.62031569 130.11564013 -21.71567379 130.1110608 -25.81103516 130.10601807 C-33.85206731 130.09528094 -41.8930702 130.07820466 -49.93408203 130.05718994 C-49.93408203 128.07718994 -49.93408203 126.09718994 -49.93408203 124.05718994 C-48.95826172 123.852229 -47.98244141 123.64726807 -46.97705078 123.43609619 C-45.70474609 123.16668213 -44.43244141 122.89726807 -43.12158203 122.61968994 C-41.85701172 122.352854 -40.59244141 122.08601807 -39.28955078 121.81109619 C-35.9636279 121.12291108 -35.9636279 121.12291108 -32.93408203 120.05718994 C-30.55287703 115.02126377 -30.64385154 110.10639432 -30.65942383 104.65875244 C-30.6543129 103.73117126 -30.64920197 102.80359009 -30.64393616 101.84790039 C-30.63007626 98.79259731 -30.63099399 95.73752066 -30.63330078 92.68218994 C-30.62941238 90.55279456 -30.62507741 88.42339995 -30.62031555 86.29400635 C-30.61286146 81.83548465 -30.61313913 77.37704215 -30.6184082 72.91851807 C-30.62420707 67.20876699 -30.60725766 61.49933985 -30.58406353 55.78964233 C-30.5693248 51.39384063 -30.5684546 46.99811696 -30.57157326 42.60229492 C-30.57106029 40.49718585 -30.56582724 38.39207238 -30.55576134 36.2869873 C-30.54340936 33.34298688 -30.55018097 30.39961794 -30.56176758 27.45562744 C-30.55412384 26.58895447 -30.5464801 25.72228149 -30.53860474 24.8293457 C-30.58206528 19.82710888 -31.17516779 16.40070686 -33.93408203 12.05718994 C-38.32177007 8.57565486 -43.45811301 7.61596229 -48.93408203 7.05718994 C-49.93408203 6.05718994 -49.93408203 6.05718994 -49.99658203 3.49468994 C-49.97595703 2.69031494 -49.95533203 1.88593994 -49.93408203 1.05718994 C-35.31009939 0.69548638 -20.68563549 0.37942895 -6.05957031 0.11437988 C-4.03969185 0.0774203 -2.01983292 0.03936977 0 0 Z M-0.93408203 11.05718994 C-1.0353637 17.83806627 -1.10549728 24.61874816 -1.15380859 31.40020752 C-1.17394467 33.70789886 -1.20125559 36.01553905 -1.23583984 38.32305908 C-1.28426919 41.63690802 -1.30703087 44.95008342 -1.32470703 48.26422119 C-1.34535217 49.29867874 -1.36599731 50.33313629 -1.38726807 51.39894104 C-1.38757019 52.35971054 -1.38787231 53.32048004 -1.38818359 54.31036377 C-1.39706604 55.15641678 -1.40594849 56.00246979 -1.4151001 56.87416077 C-1.11447115 59.22224937 -1.11447115 59.22224937 0.94976807 60.81089783 C6.88588873 64.30693578 13.95617073 63.47006783 20.44091797 62.05718994 C27.06909992 60.14644508 32.7923335 56.00837071 36.27294922 49.95953369 C39.57020135 42.0493771 39.26581995 31.07840981 36.15966797 23.15484619 C32.64868858 16.42128929 28.01092924 12.15314657 20.81591797 9.67437744 C13.14801734 7.95345656 6.508885 8.85921529 -0.93408203 11.05718994 Z " fill="#FEFEFE" transform="translate(625.93408203125,57.94281005859375)"/>
<path d="M0 0 C2.48181925 3.51784349 1.78285265 7.67493388 1.25390625 11.77734375 C-2.92352218 26.11984804 -17.59632972 39.46015339 -28.74609375 48.77734375 C-29.65617188 49.57527344 -30.56625 50.37320313 -31.50390625 51.1953125 C-39.80600314 58.44014862 -48.59617209 64.8807254 -57.58740234 71.24023438 C-59.57706946 72.65698897 -61.54952455 74.093765 -63.515625 75.54296875 C-69.22762985 79.73909235 -75.02226536 83.72307759 -81.12109375 87.33984375 C-82.20132813 87.98050781 -83.2815625 88.62117188 -84.39453125 89.28125 C-88.34173713 91.04323118 -91.45754457 91.43631533 -95.74609375 91.77734375 C-95.58625 92.33808594 -95.42640625 92.89882812 -95.26171875 93.4765625 C-93.72019964 100.3550076 -94.254111 106.66637393 -97.74609375 112.77734375 C-100.93964214 115.77734375 -100.93964214 115.77734375 -103.74609375 115.77734375 C-102.75609375 112.14734375 -101.76609375 108.51734375 -100.74609375 104.77734375 C-101.34421875 105.74671875 -101.94234375 106.71609375 -102.55859375 107.71484375 C-104.74609375 110.77734375 -104.74609375 110.77734375 -107.74609375 111.77734375 C-106.26109375 112.76734375 -106.26109375 112.76734375 -104.74609375 113.77734375 C-105.31954312 116.64459061 -105.60754525 117.63879525 -107.74609375 119.77734375 C-110.47478782 119.74446792 -113.04275555 119.21336604 -115.74609375 118.77734375 C-115.08609375 119.76734375 -114.42609375 120.75734375 -113.74609375 121.77734375 C-107.90416763 120.79599252 -102.99053768 119.66178791 -97.74609375 116.77734375 C-97.08609375 116.77734375 -96.42609375 116.77734375 -95.74609375 116.77734375 C-95.74609375 116.11734375 -95.74609375 115.45734375 -95.74609375 114.77734375 C-95.08609375 114.77734375 -94.42609375 114.77734375 -93.74609375 114.77734375 C-92.13544746 111.12654549 -91.29715284 107.72660055 -90.74609375 103.77734375 C-86.44377761 104.23795618 -84.83177638 106.5983286 -82.18359375 109.83984375 C-81.75449707 110.36497559 -81.32540039 110.89010742 -80.88330078 111.43115234 C-76.87885751 116.42477553 -73.28766005 121.68723297 -69.71264648 126.99243164 C-67.19354348 130.71963498 -64.61194086 134.30323521 -61.74609375 137.77734375 C-58.40963302 141.8244097 -55.48069275 146.05474201 -52.55859375 150.40234375 C-36.69801539 174.08803681 -36.69801539 174.08803681 -13.74609375 189.77734375 C-12.71484375 190.18984375 -11.68359375 190.60234375 -10.62109375 191.02734375 C-8.15238112 191.67135574 -6.01988076 191.94428962 -3.49609375 192.15234375 C0.25390625 192.77734375 0.25390625 192.77734375 1.81640625 194.46484375 C2.38126074 197.4505032 1.92280591 199.83418525 1.25390625 202.77734375 C-3.51866434 204.06747267 -8.01772942 203.71949155 -12.89453125 203.4375 C-13.7841153 203.39169296 -14.67369934 203.34588593 -15.59024048 203.2986908 C-18.43420522 203.15163954 -21.27763869 202.99641955 -24.12109375 202.83984375 C-45.49775622 201.68100168 -66.46602312 201.9465427 -87.84130859 202.99829102 C-90.93177606 203.14906279 -94.02248638 203.29362182 -97.11328125 203.4375 C-98.067258 203.48640884 -99.02123474 203.53531769 -100.00411987 203.58570862 C-100.87658356 203.62582565 -101.74904724 203.66594269 -102.64794922 203.70727539 C-103.80253128 203.76390099 -103.80253128 203.76390099 -104.98043823 203.82167053 C-106.74609375 203.77734375 -106.74609375 203.77734375 -107.74609375 202.77734375 C-107.84399945 201.27996251 -107.87584239 199.77791483 -107.87109375 198.27734375 C-107.87496094 197.0553125 -107.87496094 197.0553125 -107.87890625 195.80859375 C-107.74609375 193.77734375 -107.74609375 193.77734375 -106.74609375 192.77734375 C-105.2684841 192.66988123 -103.78869456 192.59199714 -102.30859375 192.52734375 C-95.75588803 191.95221418 -89.44723489 189.47848489 -84.74609375 184.77734375 C-83.10891237 179.48798852 -84.41127191 175.59744524 -86.74609375 170.77734375 C-88.57431727 167.96666205 -90.63707201 165.38133683 -92.74609375 162.77734375 C-97.36188264 156.91263054 -101.82391083 150.9866013 -106.05859375 144.83984375 C-106.53232422 144.15986328 -107.00605469 143.47988281 -107.49414062 142.77929688 C-110.74609375 138.02569223 -110.74609375 138.02569223 -110.74609375 135.77734375 C-111.40609375 135.77734375 -112.06609375 135.77734375 -112.74609375 135.77734375 C-114.9691762 133.28179437 -116.82642735 130.51016643 -118.74609375 127.77734375 C-119.32359375 126.99359375 -119.90109375 126.20984375 -120.49609375 125.40234375 C-122.084188 122.06734583 -122.53462501 118.82611631 -123.0234375 115.1796875 C-123.57144595 112.61899455 -123.57144595 112.61899455 -125.78125 110.90234375 C-128.54009267 107.91862524 -128.28025502 105.84098272 -128.24609375 101.83984375 C-128.25640625 100.63457031 -128.26671875 99.42929688 -128.27734375 98.1875 C-127.64606475 94.1352458 -126.69036832 92.59894022 -123.74609375 89.77734375 C-119.10164682 86.73625795 -114.97917373 86.33994559 -109.55859375 86.46484375 C-108.84767578 86.46162109 -108.13675781 86.45839844 -107.40429688 86.45507812 C-103.6596547 86.49382795 -101.93190351 86.65347058 -98.74609375 88.77734375 C-98.65328125 87.91625 -98.56046875 87.05515625 -98.46484375 86.16796875 C-96.4884788 76.84468194 -89.18372688 68.81045813 -82.79296875 62.078125 C-80.82775091 59.86913013 -79.31815284 57.68751504 -77.80859375 55.15234375 C-77.12796875 54.03859375 -76.44734375 52.92484375 -75.74609375 51.77734375 C-75.08609375 51.77734375 -74.42609375 51.77734375 -73.74609375 51.77734375 C-73.47796875 51.1946875 -73.20984375 50.61203125 -72.93359375 50.01171875 C-71.73128384 47.74947774 -70.40783462 45.97158057 -68.74609375 44.02734375 C-68.23046875 43.41375 -67.71484375 42.80015625 -67.18359375 42.16796875 C-65.74609375 40.77734375 -65.74609375 40.77734375 -63.74609375 40.77734375 C-63.74609375 40.11734375 -63.74609375 39.45734375 -63.74609375 38.77734375 C-62.37109375 37.15234375 -62.37109375 37.15234375 -60.74609375 35.77734375 C-60.08609375 35.77734375 -59.42609375 35.77734375 -58.74609375 35.77734375 C-58.74609375 35.11734375 -58.74609375 34.45734375 -58.74609375 33.77734375 C-58.08609375 33.77734375 -57.42609375 33.77734375 -56.74609375 33.77734375 C-56.74609375 33.11734375 -56.74609375 32.45734375 -56.74609375 31.77734375 C-56.08609375 31.77734375 -55.42609375 31.77734375 -54.74609375 31.77734375 C-54.49859375 31.22046875 -54.25109375 30.66359375 -53.99609375 30.08984375 C-50.37220923 23.38565738 -44.69028942 19.29828131 -38.74609375 14.77734375 C-38.15231934 14.32456055 -37.55854492 13.87177734 -36.94677734 13.40527344 C-35.01187973 11.93639544 -33.06821593 10.47997028 -31.12109375 9.02734375 C-30.51225342 8.56763184 -29.90341309 8.10791992 -29.27612305 7.63427734 C-22.24359231 2.44883594 -8.66158734 -6.06504886 0 0 Z " fill="#FEFEFE" transform="translate(1001.74609375,20.22265625)"/>
<path d="M0 0 C2.08894539 -0.36914349 2.08894539 -0.36914349 4.72024536 -0.36076355 C5.71586487 -0.36488754 6.71148437 -0.36901154 7.73727417 -0.3732605 C8.83347076 -0.36247467 9.92966736 -0.35168884 11.05908203 -0.34057617 C12.21029541 -0.34101425 13.36150879 -0.34145233 14.54760742 -0.34190369 C18.36784596 -0.33980705 22.18765026 -0.3164342 26.0078125 -0.29296875 C28.65054077 -0.28737592 31.29327215 -0.28310435 33.93600464 -0.28010559 C40.1904732 -0.27077235 46.44478489 -0.24614145 52.6991843 -0.21605712 C59.81878287 -0.18255274 66.93838883 -0.16603711 74.05804658 -0.15097082 C88.7054454 -0.11959289 103.3527205 -0.06680767 118 0 C118.02505615 0.86689453 118.0501123 1.73378906 118.07592773 2.62695312 C118.17169454 5.87737824 118.27088544 9.12767671 118.37231445 12.37792969 C118.41533026 13.77827952 118.45702493 15.17867064 118.49731445 16.57910156 C118.71330079 25.76659496 118.71330079 25.76659496 119.59765625 34.90625 C119.73042969 35.9271875 119.86320313 36.948125 120 38 C119 39 119 39 116.75 39.5625 C114 39 114 39 112.83984375 37.6015625 C112.02088057 36.24125077 111.22210495 34.86869559 110.4375 33.48828125 C104.83244608 23.78605477 98.67567068 15.97715351 88 12 C79.49949206 9.75379248 71.04723996 9.75819915 62.3125 9.875 C57.919375 9.91625 53.52625 9.9575 49 10 C49 24.19 49 38.38 49 53 C59.60670668 53 66.23258036 52.74313632 75.23828125 47.90234375 C77 47 77 47 80 46 C81.03973184 43.86673164 81.03973184 43.86673164 82 41 C82.65409958 39.4529595 83.32178451 37.91162107 84 36.375 C84.495 35.24191406 84.495 35.24191406 85 34.0859375 C86 32 86 32 88 29 C92.875 29.875 92.875 29.875 94 31 C94.09881593 32.71318946 94.12798969 34.43044803 94.12939453 36.14648438 C94.13254669 37.24432251 94.13569885 38.34216064 94.13894653 39.4732666 C94.13591019 41.26540588 94.13591019 41.26540588 94.1328125 43.09375 C94.13376923 44.31074585 94.13472595 45.5277417 94.13571167 46.78161621 C94.13639372 49.36075899 94.13453772 51.93990347 94.13037109 54.51904297 C94.12502322 58.48278636 94.13031529 62.44641642 94.13671875 66.41015625 C94.13605797 68.90885442 94.13477682 71.40755252 94.1328125 73.90625 C94.13483673 75.10100952 94.13686096 76.29576904 94.13894653 77.5267334 C94.13421829 79.1734906 94.13421829 79.1734906 94.12939453 80.85351562 C94.12859894 81.8253479 94.12780334 82.79718018 94.12698364 83.79846191 C94 86 94 86 93 87 C91.00041636 87.04080783 88.99954746 87.04254356 87 87 C86.70867187 86.21496094 86.41734375 85.42992187 86.1171875 84.62109375 C82.36637408 75.00815999 78.57506432 68.3675732 69 64 C62.06527584 62.30170021 55.20903972 63 48 63 C48 81.15 48 99.3 48 118 C54.97986752 118.99712393 61.59647068 119.25671802 68.625 119.3125 C69.81996094 119.34150391 71.01492188 119.37050781 72.24609375 119.40039062 C83.47271775 119.47945136 93.33399906 116.92193286 103.125 111.4375 C104.17945313 110.85871094 105.23390625 110.27992188 106.3203125 109.68359375 C108.59191691 108.2563904 110.14923604 106.89099796 112 105 C112.66 105 113.32 105 114 105 C114 104.34 114 103.68 114 103 C115.45763253 101.83221371 116.9154038 100.66459999 118.37402344 99.49804688 C121.60927378 96.51734175 123.55735674 92.59411108 125.7421875 88.8203125 C128.52302838 84.21821667 128.52302838 84.21821667 131.16015625 83.01171875 C133 83 133 83 134.8125 84.0625 C136 86 136 86 135.8359375 88.578125 C134.57753746 93.72933265 132.11542099 98.18257273 129.67773438 102.86914062 C125.24881949 111.779251 123.1262993 120.1000522 120 130 C80.4 130 40.8 130 0 130 C-0.495 127.525 -0.495 127.525 -1 125 C1.47511199 122.52488801 7.32316765 122.67453851 10.6796875 122.109375 C14.09959548 121.29436698 14.09959548 121.29436698 15.8828125 118.703125 C18.11384094 113.30497227 18.14849086 108.07298908 18.14526367 102.29760742 C18.14862228 101.43190628 18.1519809 100.56620514 18.15544128 99.67427063 C18.16492461 96.81798866 18.16689314 93.96176548 18.16796875 91.10546875 C18.17118336 89.11395748 18.17454759 87.12244645 18.17805481 85.13093567 C18.18403968 80.95732069 18.18589539 76.78372639 18.18530273 72.61010742 C18.1852012 67.27388958 18.19884749 61.93780505 18.21607494 56.60161877 C18.22721864 52.48797502 18.22922121 48.37436324 18.22869301 44.26070595 C18.22986978 42.29401503 18.23427447 40.3273232 18.24202538 38.3606472 C18.25187222 35.60386317 18.24892864 32.84736526 18.24291992 30.09057617 C18.25134918 28.88315262 18.25134918 28.88315262 18.25994873 27.65133667 C18.23131039 22.45521327 17.62276796 17.95595942 16 13 C10.86650002 8.93597918 5.38207846 7.97593152 -1 7 C-1.625 5.1875 -1.625 5.1875 -2 3 C-1.34 2.01 -0.68 1.02 0 0 Z " fill="#FEFEFE" transform="translate(438,58)"/>
<path d="M0 0 C39.27 0 78.54 0 119 0 C119.33 10.23 119.66 20.46 120 31 C120.495 35.455 120.495 35.455 121 40 C118 43 118 43 115.921875 43.0546875 C114 42 114 42 113.015625 39.4453125 C112.76296875 38.34960938 112.5103125 37.25390625 112.25 36.125 C109.71752744 27.15787925 105.46813546 19.59523194 97.1875 14.875 C92.07422591 12.39528832 87.44302848 11.73746702 81.8125 11.4375 C81.06291016 11.39431641 80.31332031 11.35113281 79.54101562 11.30664062 C77.69421625 11.20077315 75.84713166 11.0999024 74 11 C74.06121348 24.3260441 74.13832181 37.65189239 74.23571491 50.97772408 C74.28043938 57.16547468 74.31969115 63.35315912 74.34643555 69.54101562 C74.37244746 75.51281092 74.41283547 81.48435189 74.46318626 87.45598984 C74.47986916 89.73410758 74.49137456 92.01226932 74.49761391 94.29043961 C74.50723924 97.48182069 74.53528086 100.67254904 74.56762695 103.86376953 C74.56619186 104.80532394 74.56475677 105.74687836 74.5632782 106.71696472 C74.63722287 111.8767885 75.08583224 115.54947635 78 120 C79.96870167 121.30284128 79.96870167 121.30284128 82.25 121.8125 C83.43335938 122.14314453 83.43335938 122.14314453 84.640625 122.48046875 C87.75147934 123.16547475 90.84001695 123.60500212 94 124 C95 125 95 125 95 130 C71.57 130 48.14 130 24 130 C23.67 128.35 23.34 126.7 23 125 C24.66289062 124.65388672 24.66289062 124.65388672 26.359375 124.30078125 C27.82314523 123.97237126 29.28667483 123.64288743 30.75 123.3125 C31.47960937 123.16361328 32.20921875 123.01472656 32.9609375 122.86132812 C36.58667399 122.02081648 38.63804551 121.32564377 41.453125 118.79296875 C44.72293878 112.88913832 44.1627313 105.80423225 44.20532227 99.20922852 C44.21522186 98.25235641 44.22512146 97.29548431 44.23532104 96.30961609 C44.26675429 93.16607078 44.29162121 90.0225104 44.31640625 86.87890625 C44.33699149 84.69172283 44.35798837 82.50454324 44.37937927 80.31736755 C44.4344378 74.57503376 44.48391831 68.83266502 44.53222656 63.090271 C44.58256035 57.22486277 44.63818429 51.35950495 44.69335938 45.49414062 C44.80074244 33.99613687 44.90223111 22.49808924 45 11 C42.44058836 11.11620848 39.88266728 11.24417773 37.32421875 11.37890625 C36.60455933 11.41036743 35.8848999 11.44182861 35.14343262 11.47424316 C29.37758462 11.79209768 25.06340502 13.22184857 20 16 C18.5459375 16.4640625 18.5459375 16.4640625 17.0625 16.9375 C14.21069334 18.40661252 14.10907283 20.03682833 13 23 C12.20319419 24.61201968 11.39031551 26.21618286 10.5625 27.8125 C8.94441592 30.99631837 7.5132283 34.13673552 6.3125 37.5 C5 41 5 41 3 43 C0.375 42.625 0.375 42.625 -2 42 C-3.08130819 38.38274272 -2.7668068 35.47476405 -2.2890625 31.73779297 C-1.574803 24.97283859 -1.58677233 18.13006239 -1.39453125 11.33398438 C-1.35714844 10.16287109 -1.31976563 8.99175781 -1.28125 7.78515625 C-1.25095703 6.72176025 -1.22066406 5.65836426 -1.18945312 4.56274414 C-1 2 -1 2 0 0 Z " fill="#FEFEFE" transform="translate(312,58)"/>
<path d="M0 0 C1.84687805 -0.25076294 1.84687805 -0.25076294 4.12231445 -0.07861328 C4.97842819 -0.02438202 5.83454193 0.02984924 6.71659851 0.08572388 C8.11951897 0.19411087 8.11951897 0.19411087 9.55078125 0.3046875 C11.56434839 0.42858048 13.57820275 0.54787243 15.59228516 0.66308594 C17.17254486 0.75414612 17.17254486 0.75414612 18.784729 0.8470459 C27.1780863 1.24632746 35.58962554 1.14716118 43.99047852 1.13037109 C47.2235163 1.12493949 50.45641911 1.13039616 53.68945312 1.13671875 C55.78645863 1.1360589 57.88346406 1.13477968 59.98046875 1.1328125 C60.9264946 1.13483673 61.87252045 1.13686096 62.84721375 1.13894653 C68.46711198 1.11946207 73.98657959 0.80270998 79.57717896 0.22361755 C82.96487445 -0.0890544 86.28541033 -0.09618406 89.6875 -0.0625 C91.48767578 -0.04896484 91.48767578 -0.04896484 93.32421875 -0.03515625 C94.20722656 -0.02355469 95.09023438 -0.01195313 96 0 C97.36952673 2.73905345 97.12621361 4.97087332 97 8 C96.67 8.66 96.34 9.32 96 10 C93.01990872 10.86111563 90.01377056 11.47453124 86.98046875 12.12109375 C83.96866644 13.00923991 82.21112807 13.78358215 80 16 C79.31640413 24.20315042 83.60715767 29.91427856 87.87109375 36.546875 C89.60818127 39.26709284 90.9312319 41.93970228 92 45 C92.66 45 93.32 45 94 45 C95.27448143 46.57365547 96.46898948 48.21237132 97.625 49.875 C101.01887591 54.68971245 104.60773864 59.23371371 108.43359375 63.7109375 C110.12998774 66.18995715 110.62917908 68.04387833 111 71 C108 72 108 72 104.375 71.75 C98.36978433 71.69470335 93.70613458 74.52526885 89.35546875 78.50390625 C85.26348204 83.39778085 85.12300632 88.81613697 85 95 C81.56522734 94.73624782 80.27788873 94.29902684 77.89453125 91.734375 C77.20746094 90.74953125 76.52039063 89.7646875 75.8125 88.75 C75.023208 87.64376518 74.23280558 86.53832196 73.44140625 85.43359375 C73.03809082 84.86237793 72.63477539 84.29116211 72.21923828 83.70263672 C70.2978998 81.01953408 68.27222573 78.42002034 66.25 75.8125 C65.41099475 74.72561812 64.57246847 73.63836636 63.734375 72.55078125 C63.29673828 71.98311035 62.85910156 71.41543945 62.40820312 70.83056641 C59.76399371 67.39327754 57.13278999 63.9460381 54.5 60.5 C49.88761792 54.46415061 45.26547208 48.43617105 40.625 42.421875 C38.58929972 39.77674094 36.57399935 37.11670382 34.5625 34.453125 C33.97210937 33.67388672 33.38171875 32.89464844 32.7734375 32.09179688 C31.60876322 30.55386244 30.44720081 29.01356546 29.2890625 27.47070312 C28.76054688 26.77396484 28.23203125 26.07722656 27.6875 25.359375 C27.21699219 24.73514648 26.74648438 24.11091797 26.26171875 23.46777344 C25.04559443 21.86165336 25.04559443 21.86165336 23 21 C23 20.34 23 19.68 23 19 C22.41347656 18.70996094 21.82695313 18.41992188 21.22265625 18.12109375 C19.88621827 17.44700289 18.55756806 16.75661317 17.24609375 16.03515625 C13.22999778 13.87531198 9.59630612 12.63684678 5.125 11.6875 C2.30859375 10.98046875 2.30859375 10.98046875 0 10 C-1.8125 6.5 -1.8125 6.5 -2 3 C-1.34 2.01 -0.68 1.02 0 0 Z " fill="#FEFEFE" transform="translate(786,31)"/>
<path d="M0 0 C0.99 0.99 0.99 0.99 2 2 C1.54983041 11.45356149 -5.10318718 20.05656672 -11 27 C-11.66 27 -12.32 27 -13 27 C-13.24363281 27.55300781 -13.48726562 28.10601562 -13.73828125 28.67578125 C-15.26406057 31.48642736 -17.13276779 33.73667484 -19.1875 36.1875 C-22.07318013 39.64939421 -24.8716031 43.13526984 -27.5625 46.75 C-30.41795338 50.47074228 -33.563668 53.44657108 -37.203125 56.39453125 C-39.10152939 57.97852682 -39.10152939 57.97852682 -40.609375 60.19921875 C-41.06828125 60.79347656 -41.5271875 61.38773438 -42 62 C-42.66 62 -43.32 62 -44 62 C-44 62.66 -44 63.32 -44 64 C-44.66 64 -45.32 64 -46 64 C-46.226875 64.556875 -46.45375 65.11375 -46.6875 65.6875 C-48.37550036 68.66159588 -50.46676517 70.72008865 -53 73 C-53.66 73 -54.32 73 -55 73 C-55 73.66 -55 74.32 -55 75 C-56.58203125 76.26171875 -56.58203125 76.26171875 -58.8125 77.6875 C-59.63105469 78.21472656 -60.44960938 78.74195313 -61.29296875 79.28515625 C-62.18628906 79.85105469 -63.07960938 80.41695313 -64 81 C-65.38638672 81.89525391 -65.38638672 81.89525391 -66.80078125 82.80859375 C-69.52199716 84.55875336 -72.25590133 86.28598092 -75 88 C-75.66257812 88.41636719 -76.32515625 88.83273438 -77.0078125 89.26171875 C-81.88952995 92.206073 -86.4291985 94.10081575 -92.1875 93.875 C-95.59257112 92.81564454 -96.98142297 91.95022796 -99 89 C-100.1476594 81.68367131 -97.07283085 76.03047871 -93.046875 70.14453125 C-90.75487643 67.04712759 -88.39862045 64.01551804 -86 61 C-85.19304688 59.97519531 -84.38609375 58.95039063 -83.5546875 57.89453125 C-76.75576034 49.40148198 -76.75576034 49.40148198 -73 47 C-72.34 47 -71.68 47 -71 47 C-71 46.34 -71 45.68 -71 45 C-69.26608049 43.39365985 -67.461909 41.8624713 -65.625 40.375 C-64.62726562 39.55773437 -63.62953125 38.74046875 -62.6015625 37.8984375 C-60 36 -60 36 -58 36 C-58 35.34 -58 34.68 -58 34 C-55.97265625 32.2578125 -55.97265625 32.2578125 -53.0625 30.125 C-52.53253418 29.73570312 -52.00256836 29.34640625 -51.45654297 28.9453125 C-49.6442646 27.62089554 -47.82318557 26.30935767 -46 25 C-45.33629395 24.52143555 -44.67258789 24.04287109 -43.98876953 23.54980469 C-9.34662733 -1.36779912 -9.34662733 -1.36779912 0 0 Z " fill="#FB914F" transform="translate(874,133)"/>
<path d="M0 0 C2.48181925 3.51784349 1.78285265 7.67493388 1.25390625 11.77734375 C-2.92352218 26.11984804 -17.59632972 39.46015339 -28.74609375 48.77734375 C-29.65617188 49.57527344 -30.56625 50.37320313 -31.50390625 51.1953125 C-39.80600314 58.44014862 -48.59617209 64.8807254 -57.58740234 71.24023438 C-59.57706946 72.65698897 -61.54952455 74.093765 -63.515625 75.54296875 C-69.22762985 79.73909235 -75.02226536 83.72307759 -81.12109375 87.33984375 C-82.20132813 87.98050781 -83.2815625 88.62117188 -84.39453125 89.28125 C-88.41166099 91.07444428 -91.3579945 91.58796262 -95.74609375 91.77734375 C-97.74609375 89.77734375 -97.74609375 89.77734375 -98.0859375 86.546875 C-97.69823858 82.24653644 -96.62067323 80.08394671 -94.30859375 76.46484375 C-93.77431763 75.62626831 -93.77431763 75.62626831 -93.22924805 74.77075195 C-90.1828867 70.12940237 -86.6136225 66.10298611 -82.79296875 62.078125 C-80.82775091 59.86913013 -79.31815284 57.68751504 -77.80859375 55.15234375 C-77.12796875 54.03859375 -76.44734375 52.92484375 -75.74609375 51.77734375 C-75.08609375 51.77734375 -74.42609375 51.77734375 -73.74609375 51.77734375 C-73.47796875 51.1946875 -73.20984375 50.61203125 -72.93359375 50.01171875 C-71.73128384 47.74947774 -70.40783462 45.97158057 -68.74609375 44.02734375 C-68.23046875 43.41375 -67.71484375 42.80015625 -67.18359375 42.16796875 C-65.74609375 40.77734375 -65.74609375 40.77734375 -63.74609375 40.77734375 C-63.74609375 40.11734375 -63.74609375 39.45734375 -63.74609375 38.77734375 C-62.37109375 37.15234375 -62.37109375 37.15234375 -60.74609375 35.77734375 C-60.08609375 35.77734375 -59.42609375 35.77734375 -58.74609375 35.77734375 C-58.74609375 35.11734375 -58.74609375 34.45734375 -58.74609375 33.77734375 C-58.08609375 33.77734375 -57.42609375 33.77734375 -56.74609375 33.77734375 C-56.74609375 33.11734375 -56.74609375 32.45734375 -56.74609375 31.77734375 C-56.08609375 31.77734375 -55.42609375 31.77734375 -54.74609375 31.77734375 C-54.49859375 31.22046875 -54.25109375 30.66359375 -53.99609375 30.08984375 C-50.37220923 23.38565738 -44.69028942 19.29828131 -38.74609375 14.77734375 C-37.85543213 14.09816895 -37.85543213 14.09816895 -36.94677734 13.40527344 C-35.01187973 11.93639544 -33.06821593 10.47997028 -31.12109375 9.02734375 C-30.51225342 8.56763184 -29.90341309 8.10791992 -29.27612305 7.63427734 C-22.24359231 2.44883594 -8.66158734 -6.06504886 0 0 Z " fill="#FC904D" transform="translate(1001.74609375,20.22265625)"/>
<path d="M0 0 C0.33 0 0.66 0 1 0 C3.62570287 8.22095065 5.94971312 16.55143868 2.75 24.9375 C1.06231213 27.89095377 -0.04419785 29.37907624 -3 31 C-3.66 31 -4.32 31 -5 31 C-4.01 27.37 -3.02 23.74 -2 20 C-2.598125 20.969375 -3.19625 21.93875 -3.8125 22.9375 C-6 26 -6 26 -9 27 C-8.01 27.66 -7.02 28.32 -6 29 C-6.57344937 31.86724686 -6.8614515 32.8614515 -9 35 C-11.72869407 34.96712417 -14.2966618 34.43602229 -17 34 C-17 35.65 -17 37.3 -17 39 C-18.32 39.66 -19.64 40.32 -21 41 C-23.3763519 37.43547216 -23.65067341 34.64471837 -24.2421875 30.47265625 C-24.81886713 27.85014924 -24.81886713 27.85014924 -27.0390625 26.1171875 C-29.79673497 23.13978017 -29.53411083 21.0577308 -29.5 17.0625 C-29.5103125 15.85722656 -29.520625 14.65195313 -29.53125 13.41015625 C-28.899971 9.35790205 -27.94427457 7.82159647 -25 5 C-20.35555307 1.9589142 -16.23307998 1.56260184 -10.8125 1.6875 C-10.10158203 1.68427734 -9.39066406 1.68105469 -8.65820312 1.67773438 C-4.91356095 1.7164842 -3.18580976 1.87612683 0 4 C0 2.68 0 1.36 0 0 Z " fill="#FBF9F6" transform="translate(903,105)"/>
<path d="M0 0 C4.98669007 2.49334503 8.49675474 5.99350949 11 11 C11.60953693 16.25072524 11.96251988 21.36448273 9 25.9375 C5.33002862 30.20371323 1.15225448 32.71343141 -4.4921875 33.2265625 C-10.17563188 33.00198871 -13.53505151 31.48329207 -17.625 27.5703125 C-21.39413312 23.26579115 -22.02710369 19.5652915 -22 14 C-21.4380631 9.86414444 -20.12303632 7.1088506 -17.14453125 4.16796875 C-11.70259713 0.055215 -6.73815889 -1.34304019 0 0 Z " fill="#FB914D" transform="translate(744,63)"/>
<path d="M0 0 C3.35234564 2.4251011 4.77884572 3.8450832 5.5625 7.9375 C4.8098116 12.03547018 3.97187464 14.02812536 1 17 C-2.50479926 17.88654281 -5.49103454 17.85736858 -9 17 C-12.16981497 14.82702729 -13.59348037 11.92596138 -15.125 8.4375 C-15 6 -15 6 -12.75 3.25 C-8.5884332 -0.15491829 -5.28938943 -0.54717822 0 0 Z " fill="#F79250" transform="translate(896,114)"/>
<path d="M0 0 C0.99 0.33 1.98 0.66 3 1 C2.62488281 1.43570313 2.24976563 1.87140625 1.86328125 2.3203125 C1.35152344 2.91585937 0.83976563 3.51140625 0.3125 4.125 C-0.24050781 4.76695313 -0.79351563 5.40890625 -1.36328125 6.0703125 C-2.73367126 7.68599905 -4.05998668 9.33893054 -5.375 11 C-8.63689711 14.72788241 -12.22295166 17.80734839 -16 21 C-16.91523437 21.80308594 -17.83046875 22.60617188 -18.7734375 23.43359375 C-27.05881665 30.65907523 -35.82763757 37.09014725 -44.79736328 43.43652344 C-46.91360122 44.93867238 -49.01917292 46.45446434 -51.12109375 47.9765625 C-52.37239075 48.88021538 -53.62369255 49.7838616 -54.875 50.6875 C-55.72179321 51.30250366 -55.72179321 51.30250366 -56.58569336 51.92993164 C-59.29736 53.87656689 -61.95372999 55.6240278 -65 57 C-65 55.68 -65 54.36 -65 53 C-64.01 53 -63.02 53 -62 53 C-62 52.34 -62 51.68 -62 51 C-55.375 47 -55.375 47 -52 47 C-52 46.34 -52 45.68 -52 45 C-50.75 43.375 -50.75 43.375 -49 42 C-47.68 42 -46.36 42 -45 42 C-45 41.01 -45 40.02 -45 39 C-44.01 39 -43.02 39 -42 39 C-42 38.34 -42 37.68 -42 37 C-40.02 36.34 -38.04 35.68 -36 35 C-36 34.34 -36 33.68 -36 33 C-35.01 33 -34.02 33 -33 33 C-33 32.34 -33 31.68 -33 31 C-32.01 31 -31.02 31 -30 31 C-30 29.35 -30 27.7 -30 26 C-28.68 26.33 -27.36 26.66 -26 27 C-26 26.34 -26 25.68 -26 25 C-25.34 25 -24.68 25 -24 25 C-24 24.34 -24 23.68 -24 23 C-23.01 23 -22.02 23 -21 23 C-20.67 21.68 -20.34 20.36 -20 19 C-19.34 19 -18.68 19 -18 19 C-17.67 17.68 -17.34 16.36 -17 15 C-15.68 15 -14.36 15 -13 15 C-13 13.68 -13 12.36 -13 11 C-11.02 11 -9.04 11 -7 11 C-6.773125 10.113125 -6.54625 9.22625 -6.3125 8.3125 C-4.82811487 4.56619468 -2.97596515 2.66270566 0 0 Z " fill="#E7A575" transform="translate(989,48)"/>
<path d="M0 0 C0.33 0 0.66 0 1 0 C1.36474164 5.47112462 1.36474164 5.47112462 -0.25 7.8125 C-2.16591802 9.11258722 -3.72970466 9.60856977 -6 10 C-6.66 12.31 -7.32 14.62 -8 17 C-8.99 17 -9.98 17 -11 17 C-11 17.66 -11 18.32 -11 19 C-13.375 21.625 -13.375 21.625 -16 24 C-16.66 24 -17.32 24 -18 24 C-18.433125 25.670625 -18.433125 25.670625 -18.875 27.375 C-20 31 -20 31 -22 33 C-22.67292501 34.96690374 -22.67292501 34.96690374 -23.125 37.125 C-23.41375 38.40375 -23.7025 39.6825 -24 41 C-20.37 40.34 -16.74 39.68 -13 39 C-13 38.67 -13 38.34 -13 38 C-11.35 38 -9.7 38 -8 38 C-12.41085797 41.87620852 -16.88202784 44.65355865 -22.8125 45.3125 C-25 45 -25 45 -27 43 C-27.5845298 37.44360755 -26.53991681 34.34805692 -23.5625 29.6875 C-23.20631592 29.12844971 -22.85013184 28.56939941 -22.4831543 27.9934082 C-19.43679295 23.35205862 -15.86752875 19.32564236 -12.046875 15.30078125 C-10.08165716 13.09178638 -8.57205909 10.91017129 -7.0625 8.375 C-6.381875 7.26125 -5.70125 6.1475 -5 5 C-4.34 5 -3.68 5 -3 5 C-2.690625 4.360625 -2.38125 3.72125 -2.0625 3.0625 C-1 1 -1 1 0 0 Z " fill="#EAAA7B" transform="translate(931,67)"/>
<path d="M0 0 C2.47751163 3.51173767 1.79711144 7.68194284 1.25390625 11.77734375 C-0.6976665 17.85257869 -4.81338431 22.84834792 -8.74609375 27.77734375 C-9.07609375 27.11734375 -9.40609375 26.45734375 -9.74609375 25.77734375 C-9.41609375 24.78734375 -9.08609375 23.79734375 -8.74609375 22.77734375 C-8.08609375 22.44734375 -7.42609375 22.11734375 -6.74609375 21.77734375 C-5.87494088 19.69652584 -5.87494088 19.69652584 -5.18359375 17.27734375 C-3.83720992 12.86845992 -3.83720992 12.86845992 -2.74609375 11.77734375 C-2.51322367 10.09550427 -2.33345209 8.40610215 -2.18359375 6.71484375 C-2.03921875 5.08546875 -1.89484375 3.45609375 -1.74609375 1.77734375 C-5.70609375 1.44734375 -9.66609375 1.11734375 -13.74609375 0.77734375 C-14.07609375 1.76734375 -14.40609375 2.75734375 -14.74609375 3.77734375 C-17.98442957 5.64838222 -21.0659525 7.06962428 -24.74609375 7.77734375 C-24.74609375 8.43734375 -24.74609375 9.09734375 -24.74609375 9.77734375 C-25.50921875 9.85984375 -26.27234375 9.94234375 -27.05859375 10.02734375 C-30.26982636 10.92350169 -31.03983874 11.993454 -32.74609375 14.77734375 C-34.06609375 14.44734375 -35.38609375 14.11734375 -36.74609375 13.77734375 C-10.39004355 -7.27535488 -10.39004355 -7.27535488 0 0 Z " fill="#E5A37A" transform="translate(1001.74609375,20.22265625)"/>
<path d="M0 0 C0.33 0 0.66 0 1 0 C3.62570287 8.22095065 5.94971312 16.55143868 2.75 24.9375 C1.06231213 27.89095377 -0.04419785 29.37907624 -3 31 C-3.66 31 -4.32 31 -5 31 C-4.77183594 30.35933594 -4.54367187 29.71867187 -4.30859375 29.05859375 C-2.52945836 23.70523122 -1.3238037 19.587321 -3 14 C-4.3530128 11.39685006 -4.3530128 11.39685006 -7 10 C-10.03067032 9.68125709 -12.96545118 9.76657317 -16 10 C-15.67 9.34 -15.34 8.68 -15 8 C-13.39592672 7.97291433 -11.7917215 7.95356517 -10.1875 7.9375 C-9.29417969 7.92589844 -8.40085937 7.91429688 -7.48046875 7.90234375 C-5 8 -5 8 -2 9 C-2 7.68 -2 6.36 -2 5 C-1.34 5 -0.68 5 0 5 C0 3.35 0 1.7 0 0 Z " fill="#FEFEFA" transform="translate(903,105)"/>
<path d="M0 0 C0.33 0.99 0.66 1.98 1 3 C0.34 3.66 -0.32 4.32 -1 5 C-1.28146904 7.60047934 -1.28146904 7.60047934 -1.1875 10.5 C-1.18105469 11.4796875 -1.17460938 12.459375 -1.16796875 13.46875 C-1.16440726 15.99369384 -1.16440726 15.99369384 0 18 C6.16618181 18.40214229 11.17745757 16.96818336 17 15 C17 14.34 17 13.68 17 13 C18.65 13 20.3 13 22 13 C22 12.34 22 11.68 22 11 C25 9 25 9 28 9 C28.33 8.01 28.66 7.02 29 6 C29.99 6 30.98 6 32 6 C32 5.01 32 4.02 32 3 C35.465 2.505 35.465 2.505 39 2 C14.0744559 22.35586102 14.0744559 22.35586102 1.8125 21.875 C-1.59257112 20.81564454 -2.98142297 19.95022796 -5 17 C-5.95377152 10.91970655 -3.81127602 6.26126355 -1 1 C-0.67 0.67 -0.34 0.34 0 0 Z " fill="#E9B088" transform="translate(780,205)"/>
<path d="M0 0 C1.32 0.66 2.64 1.32 4 2 C2.10676602 4.23141932 0.21052304 6.46015996 -1.6875 8.6875 C-2.21794922 9.31333984 -2.74839844 9.93917969 -3.29492188 10.58398438 C-6.39456317 14.21607939 -9.60431037 17.63838083 -13 21 C-14.84555954 23.11924973 -16.64983216 25.26731529 -18.44921875 27.42578125 C-18.96097656 27.94527344 -19.47273437 28.46476562 -20 29 C-20.66 29 -21.32 29 -22 29 C-22 29.66 -22 30.32 -22 31 C-22.66 31 -23.32 31 -24 31 C-24.226875 31.556875 -24.45375 32.11375 -24.6875 32.6875 C-26.37550036 35.66159588 -28.46676517 37.72008865 -31 40 C-31.66 40 -32.32 40 -33 40 C-32.01 37.03 -32.01 37.03 -31 34 C-29.68 34 -28.36 34 -27 34 C-27.061875 33.05125 -27.12375 32.1025 -27.1875 31.125 C-27.125625 30.09375 -27.06375 29.0625 -27 28 C-24 26 -24 26 -20 26 C-19.896875 25.360625 -19.79375 24.72125 -19.6875 24.0625 C-19.460625 23.381875 -19.23375 22.70125 -19 22 C-18.01 21.67 -17.02 21.34 -16 21 C-16 20.34 -16 19.68 -16 19 C-15.34 18.34 -14.68 17.68 -14 17 C-12.68 17 -11.36 17 -10 17 C-9.855625 16.21625 -9.71125 15.4325 -9.5625 14.625 C-9 12 -9 12 -8 10 C-7.01 10 -6.02 10 -5 10 C-4.67 8.68 -4.34 7.36 -4 6 C-3.01 6 -2.02 6 -1 6 C-0.67 4.02 -0.34 2.04 0 0 Z " fill="#EA9F6C" transform="translate(852,166)"/>
<path d="M0 0 C3.85544798 1.99657127 5.59805092 3.39707638 8 7 C6.02 7 4.04 7 2 7 C1.67 5.35 1.34 3.7 1 2 C-2.63 2.33 -6.26 2.66 -10 3 C-10 3.66 -10 4.32 -10 5 C-11.98 5.33 -13.96 5.66 -16 6 C-16.33 6.99 -16.66 7.98 -17 9 C-17.99 9.33 -18.98 9.66 -20 10 C-19.13554212 6.21799679 -17.58497736 4.36439934 -14.5 2.1875 C-9.75204135 -0.54041806 -5.35888126 -0.98574739 0 0 Z " fill="#EDA475" transform="translate(744,63)"/>
<path d="M0 0 C-6.59621707 4.44633892 -13.25825716 8.77748633 -20 13 C-20.69738281 13.45117188 -21.39476562 13.90234375 -22.11328125 14.3671875 C-26.44472796 17.05695098 -26.44472796 17.05695098 -29.4375 16.75 C-29.953125 16.5025 -30.46875 16.255 -31 16 C-24.25 12 -24.25 12 -22 12 C-22 11.34 -22 10.68 -22 10 C-20.35 10 -18.7 10 -17 10 C-17 9.34 -17 8.68 -17 8 C-14 6 -14 6 -11 6 C-10.67 5.01 -10.34 4.02 -10 3 C-9.01 3 -8.02 3 -7 3 C-7 2.01 -7 1.02 -7 0 C-3.98968256 -0.93423645 -3.13349732 -1.04449911 0 0 Z " fill="#E5A781" transform="translate(819,208)"/>
<path d="M0 0 C0.33 0.99 0.66 1.98 1 3 C-0.58203125 5.59375 -0.58203125 5.59375 -2.8125 8.5 C-3.54082031 9.4590625 -4.26914062 10.418125 -5.01953125 11.40625 C-5.67308594 12.2621875 -6.32664062 13.118125 -7 14 C-7.99 15.485 -7.99 15.485 -9 17 C-9.66 17 -10.32 17 -11 17 C-11.33 17.66 -11.66 18.32 -12 19 C-11.75 16.625 -11.75 16.625 -11 14 C-8.9375 12.6875 -8.9375 12.6875 -7 12 C-7 10.68 -7 9.36 -7 8 C-6.34 7.67 -5.68 7.34 -5 7 C-4.814375 5.7934375 -4.814375 5.7934375 -4.625 4.5625 C-4 2 -4 2 -1.9375 0.6875 C-1.298125 0.460625 -0.65875 0.23375 0 0 Z " fill="#E8AD7F" transform="translate(872,143)"/>
<path d="M0 0 C0.66 0.33 1.32 0.66 2 1 C1.01 2.485 1.01 2.485 0 4 C-0.99 4 -1.98 4 -3 4 C-3.12375 4.61875 -3.2475 5.2375 -3.375 5.875 C-4 8 -4 8 -6 10 C-7.8125 10.5625 -7.8125 10.5625 -10 11 C-10.9075 11.185625 -11.815 11.37125 -12.75 11.5625 C-13.4925 11.706875 -14.235 11.85125 -15 12 C-10.58990583 7.14889642 -5.41995647 3.651893 0 0 Z " fill="#EAA979" transform="translate(852,141)"/>
<path d="M0 0 C0.99 0.33 1.98 0.66 3 1 C0.7524911 2.62854254 -1.49784162 4.25290974 -3.75 5.875 C-4.70132813 6.56529297 -4.70132813 6.56529297 -5.671875 7.26953125 C-8.68695557 9.43662041 -11.58297113 11.49857822 -15 13 C-15 11.68 -15 10.36 -15 9 C-14.01 9 -13.02 9 -12 9 C-12 8.34 -12 7.68 -12 7 C-5.375 3 -5.375 3 -2 3 C-2 2.34 -2 1.68 -2 1 C-1.34 0.67 -0.68 0.34 0 0 Z " fill="#E7AB84" transform="translate(939,92)"/>
<path d="M0 0 C0.33 1.32 0.66 2.64 1 4 C0.34 4 -0.32 4 -1 4 C-1 4.66 -1 5.32 -1 6 C-1.8971875 6.37125 -1.8971875 6.37125 -2.8125 6.75 C-5.135974 7.86434075 -5.135974 7.86434075 -6.4375 10.125 C-8 12 -8 12 -10.6875 12.25 C-11.450625 12.1675 -12.21375 12.085 -13 12 C-10.19195732 9.03595495 -7.81684226 6.55500981 -4 5 C-4 4.34 -4 3.68 -4 3 C-2 1.375 -2 1.375 0 0 Z " fill="#E9A678" transform="translate(807,175)"/>
<path d="M0 0 C4.54285065 -0.23816887 8.71980351 -0.35845502 13.125 0.875 C15.89378934 4.01296125 15.37870848 6.86522213 15.17578125 10.91796875 C15.11777344 11.60503906 15.05976562 12.29210937 15 13 C13.80071756 10.61694308 12.63621027 8.22694681 11.5 5.8125 C10.29978656 2.9087487 10.29978656 2.9087487 8 2 C6.45976004 1.93049459 4.91665012 1.91547643 3.375 1.9375 C2.55773437 1.94652344 1.74046875 1.95554687 0.8984375 1.96484375 C0.27195312 1.97644531 -0.35453125 1.98804687 -1 2 C-0.67 1.34 -0.34 0.68 0 0 Z " fill="#FBE0C7" transform="translate(888,113)"/>
<path d="M0 0 C0.99 0.33 1.98 0.66 3 1 C0.20954139 4.10050957 -1.90805306 6.02149095 -6 7 C-14.83627204 7 -14.83627204 7 -17.8046875 4.44921875 C-18.19914063 3.97097656 -18.59359375 3.49273437 -19 3 C-17.68 3 -16.36 3 -15 3 C-15 3.66 -15 4.32 -15 5 C-12.8729989 4.74535902 -10.74837785 4.47077058 -8.625 4.1875 C-7.44164062 4.03667969 -6.25828125 3.88585937 -5.0390625 3.73046875 C-1.70467916 3.29300666 -1.70467916 3.29300666 0 0 Z " fill="#EDBB8F" transform="translate(748,89)"/>
<path d="M0 0 C3.83876529 5.11835372 3.87459503 8.77656591 3 15 C1 18.1875 1 18.1875 -1 20 C-1 18.35 -1 16.7 -1 15 C-0.34 15 0.32 15 1 15 C0.67 10.05 0.34 5.1 0 0 Z " fill="#EAB083" transform="translate(752,70)"/>
<path d="M0 0 C0.99 0.33 1.98 0.66 3 1 C2.62488281 1.43570313 2.24976563 1.87140625 1.86328125 2.3203125 C-1.45859777 6.18607599 -4.74642927 10.07657648 -8 14 C-8.66 13.01 -9.32 12.02 -10 11 C-9.01 11 -8.02 11 -7 11 C-6.773125 10.113125 -6.54625 9.22625 -6.3125 8.3125 C-4.82811487 4.56619468 -2.97596515 2.66270566 0 0 Z " fill="#E7AA83" transform="translate(989,48)"/>
<path d="M0 0 C1.32 0.33 2.64 0.66 4 1 C2.4169423 5.2742558 -0.50568404 7.26531794 -4 10 C-4 8.02 -4 6.04 -4 4 C-2.68 4 -1.36 4 0 4 C0 2.68 0 1.36 0 0 Z " fill="#ED9B6A" transform="translate(976,59)"/>
<path d="M0 0 C0 0.99 0 1.98 0 3 C-0.66 3 -1.32 3 -2 3 C-2.33 3.99 -2.66 4.98 -3 6 C-3.99 6 -4.98 6 -6 6 C-6.33 6.99 -6.66 7.98 -7 9 C-8.65 9.33 -10.3 9.66 -12 10 C-8.74897716 5.25892502 -4.89367634 2.79129597 0 0 Z " fill="#EBAF8A" transform="translate(830,157)"/>
<path d="M0 0 C0.33 0 0.66 0 1 0 C1.33 3.96 1.66 7.92 2 12 C2.66 12 3.32 12 4 12 C4 13.65 4 15.3 4 17 C1.61376638 15.2295686 0.19612836 13.79768625 -0.5234375 10.87109375 C-1.00020121 6.96034275 -1.13361104 3.80754852 0 0 Z " fill="#F0B589" transform="translate(723,73)"/>
<path d="M0 0 C0.66 0 1.32 0 2 0 C1.42274324 3.89648316 -0.31875268 6.1697945 -3 9 C-5.75 10.3125 -5.75 10.3125 -8 11 C-8 10.34 -8 9.68 -8 9 C-7.34 9 -6.68 9 -6 9 C-5.7525 8.443125 -5.505 7.88625 -5.25 7.3125 C-3.77075182 4.57589087 -2.06532561 2.32349131 0 0 Z " fill="#E5AD86" transform="translate(953,43)"/>
<path d="M0 0 C0.33 0 0.66 0 1 0 C1.36521739 5.47826087 1.36521739 5.47826087 -0.3125 7.875 C-2 9 -2 9 -5 9 C-5 7.68 -5 6.36 -5 5 C-4.34 5 -3.68 5 -3 5 C-2.5359375 4.0409375 -2.5359375 4.0409375 -2.0625 3.0625 C-1 1 -1 1 0 0 Z " fill="#ECA471" transform="translate(931,67)"/>
<path d="M0 0 C-0.62393651 3.76119476 -2.34773715 6.18960042 -4.5625 9.25 C-5.20316406 10.14203125 -5.84382812 11.0340625 -6.50390625 11.953125 C-6.99761719 12.62859375 -7.49132812 13.3040625 -8 14 C-8.33 13.34 -8.66 12.68 -9 12 C-8.67 11.01 -8.34 10.02 -8 9 C-7.34 8.67 -6.68 8.34 -6 8 C-5.67 6.845 -5.34 5.69 -5 4.5 C-4.67 3.345 -4.34 2.19 -4 1 C-2 0 -2 0 0 0 Z " fill="#E4AC87" transform="translate(1001,34)"/>
<path d="M0 0 C0.66 1.32 1.32 2.64 2 4 C0.81640625 5.97265625 0.81640625 5.97265625 -1 8 C-3.41015625 8.49609375 -3.41015625 8.49609375 -6.0625 8.4375 C-6.94035156 8.43621094 -7.81820312 8.43492187 -8.72265625 8.43359375 C-9.47417969 8.29050781 -10.22570312 8.14742187 -11 8 C-11.66 7.01 -12.32 6.02 -13 5 C-8.05 5.99 -8.05 5.99 -3 7 C-3 6.01 -3 5.02 -3 4 C-2.01 4 -1.02 4 0 4 C0 2.68 0 1.36 0 0 Z " fill="#E9AA7D" transform="translate(898,123)"/>
<path d="M0 0 C0.33 0 0.66 0 1 0 C1.62303433 4.98427463 -0.36611682 8.88575912 -3 13 C-3.99 13.495 -3.99 13.495 -5 14 C-4.34580901 8.93001981 -2.1453591 4.58009223 0 0 Z " fill="#E99A6E" transform="translate(783,200)"/>
<path d="M0 0 C0 3.63195496 -0.95453155 4.74713911 -3 7.6875 C-3.556875 8.49574219 -4.11375 9.30398437 -4.6875 10.13671875 C-5.120625 10.75160156 -5.55375 11.36648437 -6 12 C-6.99 11.67 -7.98 11.34 -9 11 C-6.03 7.37 -3.06 3.74 0 0 Z " fill="#E7B38C" transform="translate(793,188)"/>
<path d="M0 0 C6.4 -0.49230769 6.4 -0.49230769 9.4375 2 C10.2109375 2.99 10.2109375 2.99 11 4 C10.01 4.66 9.02 5.32 8 6 C7.01 5.67 6.02 5.34 5 5 C5.33 3.68 5.66 2.36 6 1 C4.02 1 2.04 1 0 1 C0 0.67 0 0.34 0 0 Z " fill="#F09962" transform="translate(889,114)"/>
<path d="M0 0 C0.5775 0.226875 1.155 0.45375 1.75 0.6875 C1.75 1.3475 1.75 2.0075 1.75 2.6875 C-0.23 3.0175 -2.21 3.3475 -4.25 3.6875 C-4.58 4.6775 -4.91 5.6675 -5.25 6.6875 C-6.24 7.0175 -7.23 7.3475 -8.25 7.6875 C-6.86345583 3.41232214 -5.12511737 -0.71182186 0 0 Z " fill="#EDB184" transform="translate(732.25,65.3125)"/>
<path d="M0 0 C0.66 0.33 1.32 0.66 2 1 C0.02 3.31 -1.96 5.62 -4 8 C-5.32 7.67 -6.64 7.34 -8 7 C-5.36 4.69 -2.72 2.38 0 0 Z " fill="#E4AB81" transform="translate(963,35)"/>
<path d="M0 0 C1.32 0.66 2.64 1.32 4 2 C1.69 4.64 -0.62 7.28 -3 10 C-3.33 8.68 -3.66 7.36 -4 6 C-3.01 6 -2.02 6 -1 6 C-0.67 4.02 -0.34 2.04 0 0 Z " fill="#E8A97C" transform="translate(852,166)"/>
<path d="M0 0 C0.33 0 0.66 0 1 0 C1.19491452 1.45736087 1.38069358 2.91594593 1.5625 4.375 C1.66691406 5.18710938 1.77132812 5.99921875 1.87890625 6.8359375 C2 9 2 9 1 11 C0.34 11 -0.32 11 -1 11 C-1.33 9.02 -1.66 7.04 -2 5 C-1.34 5 -0.68 5 0 5 C0 3.35 0 1.7 0 0 Z " fill="#F9F3E9" transform="translate(903,105)"/>
<path d="M0 0 C0.66 0 1.32 0 2 0 C0.44396229 3.81936528 -1.95604931 6.26044438 -5 9 C-5.66 9 -6.32 9 -7 9 C-6.34 7.02 -5.68 5.04 -5 3 C-3.68 3 -2.36 3 -1 3 C-0.67 2.01 -0.34 1.02 0 0 Z " fill="#E4AB7A" transform="translate(826,197)"/>
<path d="M0 0 C0.66 0 1.32 0 2 0 C1.67 1.32 1.34 2.64 1 4 C0.01 4 -0.98 4 -2 4 C-2.33 4.99 -2.66 5.98 -3 7 C-4.65 7.33 -6.3 7.66 -8 8 C-3.375 3.125 -3.375 3.125 0 2 C0 1.34 0 0.68 0 0 Z " fill="#EBB490" transform="translate(816,167)"/>
<path d="M0 0 C1.26237731 2.52475462 1.09856404 4.31200466 1.0625 7.125 C1.05347656 8.03507812 1.04445313 8.94515625 1.03515625 9.8828125 C1.02355469 10.58148438 1.01195312 11.28015625 1 12 C-1.75340466 9.43263619 -2.81162845 7.86161687 -3 4 C-1.5625 1.6875 -1.5625 1.6875 0 0 Z " fill="#F5BC91" transform="translate(884,116)"/>
<path d="M0 0 C0.99 0.33 1.98 0.66 3 1 C1.8125 3 1.8125 3 0 5 C-2.6875 5.25 -2.6875 5.25 -5 5 C-3.35 3.35 -1.7 1.7 0 0 Z " fill="#EEB18A" transform="translate(799,182)"/>
<path d="M0 0 C0.33 0.99 0.66 1.98 1 3 C-0.3125 5.1875 -0.3125 5.1875 -2 7 C-2.66 7 -3.32 7 -4 7 C-4 5.35 -4 3.7 -4 2 C-2.68 1.34 -1.36 0.68 0 0 Z " fill="#E9A376" transform="translate(872,143)"/>
<path d="M0 0 C0.33 0 0.66 0 1 0 C1 1.98 1 3.96 1 6 C-0.98 6.99 -0.98 6.99 -3 8 C-2.67 6.02 -2.34 4.04 -2 2 C-1.34 2 -0.68 2 0 2 C0 1.34 0 0.68 0 0 Z " fill="#FBF3E6" transform="translate(903,124)"/>
<path d="M0 0 C2.64 0.33 5.28 0.66 8 1 C8 1.99 8 2.98 8 4 C6.02 4 4.04 4 2 4 C2 3.34 2 2.68 2 2 C1.34 2 0.68 2 0 2 C0 1.34 0 0.68 0 0 Z " fill="#FDECD7" transform="translate(886,130)"/>
<path d="M0 0 C0.33 0.99 0.66 1.98 1 3 C0.01 4.485 0.01 4.485 -1 6 C-1.66 6 -2.32 6 -3 6 C-3 6.66 -3 7.32 -3 8 C-3.66 8 -4.32 8 -5 8 C-3.62845496 5.04590299 -2.01136276 2.55991624 0 0 Z " fill="#EBB489" transform="translate(916,85)"/>
<path d="" fill="#FFFFFF" transform="translate(0,0)"/>
</svg>
